<?xml version="1.0" standalone="no"?>
<!DOCTYPE svg PUBLIC "-//W3C//DTD SVG 20010904//EN"
 "http://www.w3.org/TR/2001/REC-SVG-20010904/DTD/svg10.dtd">
<svg version="1.0" xmlns="http://www.w3.org/2000/svg"
 width="3392.000000pt" height="3392.000000pt" viewBox="0 0 3392.000000 3392.000000"
 preserveAspectRatio="xMidYMid meet">
<metadata>
Created by potrace 1.14, written by Peter Selinger 2001-2017
</metadata>
<g transform="translate(0.000000,3392.000000) scale(0.100000,-0.100000)"
fill="#000000" stroke="none">
<path d="M7280 21431 c0 -5 -18 -49 -41 -98 -22 -48 -51 -110 -64 -138 -12
-27 -64 -142 -115 -255 -51 -113 -103 -229 -116 -258 -13 -29 -24 -57 -24 -62
0 -6 -4 -10 -10 -10 -5 0 -10 -8 -10 -18 0 -10 -5 -23 -12 -30 -7 -7 -9 -12
-6 -12 4 0 -11 -36 -33 -80 -21 -44 -39 -82 -39 -84 0 -3 -18 -44 -40 -91 -22
-47 -40 -88 -40 -90 0 -2 -23 -52 -51 -111 -53 -112 -66 -143 -67 -157 0 -4
-7 -18 -15 -31 -9 -13 -27 -51 -41 -84 -15 -34 -42 -93 -60 -132 -19 -38 -33
-70 -31 -70 2 0 -14 -36 -36 -80 -21 -44 -39 -82 -39 -84 0 -3 -16 -38 -35
-79 -19 -41 -35 -80 -35 -86 0 -6 -5 -11 -12 -11 -6 0 -9 -3 -5 -6 3 -3 -6
-27 -19 -54 -13 -26 -24 -51 -24 -54 0 -3 -16 -38 -35 -78 -20 -40 -36 -75
-37 -78 -2 -8 -37 -87 -78 -177 -21 -45 -35 -84 -32 -87 3 -3 0 -6 -6 -6 -7 0
-12 -5 -12 -10 0 -6 -15 -43 -34 -83 -55 -118 -96 -208 -96 -212 0 -5 -52
-121 -76 -169 -8 -16 -14 -35 -14 -43 0 -7 -4 -13 -9 -13 -5 0 -13 -10 -17
-22 -3 -13 -14 -41 -24 -63 -10 -22 -37 -83 -60 -135 -23 -52 -53 -117 -66
-143 -13 -27 -24 -55 -24 -62 0 -7 -5 -15 -10 -17 -6 -2 -12 -13 -14 -24 -3
-12 -14 -41 -27 -65 -12 -24 -21 -44 -20 -44 1 0 -18 -43 -42 -95 -25 -52 -55
-117 -67 -145 -12 -27 -33 -74 -46 -103 -13 -28 -23 -53 -22 -55 1 -1 -5 -15
-15 -32 -18 -32 -43 -88 -157 -345 -40 -91 -77 -169 -81 -174 -5 -5 -24 25
-45 70 -19 43 -46 102 -59 129 -12 28 -32 73 -45 100 -27 60 -70 155 -159 348
-23 49 -41 91 -41 93 0 2 -23 51 -50 109 -28 58 -50 109 -50 113 0 4 -9 25
-21 47 -12 21 -39 80 -61 129 -22 50 -50 111 -61 136 -11 25 -20 48 -19 53 1
4 -3 7 -8 7 -6 0 -10 6 -10 13 0 7 -10 33 -22 58 -12 24 -23 46 -23 49 -1 3
-18 40 -38 84 -20 43 -37 84 -37 91 0 8 -3 15 -8 17 -4 2 -32 58 -61 125 -41
91 -57 118 -66 110 -6 -6 -12 -16 -12 -22 0 -6 -11 -36 -25 -66 -14 -29 -56
-124 -92 -210 l-67 -156 112 -249 c61 -137 122 -274 136 -304 14 -30 45 -100
70 -155 25 -55 55 -122 68 -150 23 -52 50 -112 85 -190 11 -25 30 -66 41 -92
12 -27 30 -66 40 -88 9 -22 36 -80 58 -128 23 -49 41 -91 41 -92 0 -2 18 -43
41 -92 22 -48 44 -97 49 -108 5 -11 24 -54 43 -95 19 -41 46 -102 61 -135 l27
-60 187 1 c103 1 190 2 193 3 4 0 16 23 27 50 28 65 78 174 110 241 14 30 26
57 27 60 5 26 31 80 37 80 4 0 8 5 8 11 0 11 33 89 94 223 30 65 76 168 128
286 11 25 31 70 45 100 14 30 66 145 115 255 49 110 100 223 113 250 30 65 39
88 37 98 -1 4 3 7 8 7 6 0 10 5 10 11 0 10 15 44 81 187 22 45 39 85 39 87 0
3 16 39 35 81 19 41 35 80 35 85 0 5 5 9 10 9 6 0 9 3 8 8 -3 13 14 62 22 62
8 0 25 49 22 63 -1 4 2 7 8 7 5 0 10 9 10 20 0 11 5 20 12 20 6 0 9 3 5 6 -3
4 6 30 20 58 15 28 28 56 29 61 1 6 15 39 32 75 41 89 74 161 144 320 33 74
72 160 86 190 14 30 26 57 27 60 7 22 27 68 35 80 6 8 13 22 16 30 3 8 12 29
19 45 8 17 32 71 53 120 22 50 51 115 65 145 29 64 73 162 92 205 8 17 32 70
54 118 23 49 41 91 41 92 0 2 18 43 40 90 22 47 40 88 40 90 0 2 16 37 35 78
19 41 35 80 35 86 0 6 5 11 12 11 6 0 9 3 6 6 -3 3 11 42 32 87 20 45 47 105
60 132 12 28 33 75 47 105 14 30 31 69 38 85 8 17 30 66 50 110 38 82 52 114
54 128 0 4 14 32 31 63 16 31 30 61 30 66 0 5 20 51 45 102 25 52 45 99 45
105 0 8 -61 11 -195 11 -109 0 -195 -4 -195 -9z"/>
<path d="M34 21352 c19 -42 48 -108 65 -146 94 -206 111 -246 111 -256 0 -6 5
-10 10 -10 6 0 10 -6 10 -14 0 -7 16 -49 36 -92 20 -44 45 -99 56 -124 11 -25
32 -70 45 -100 14 -30 40 -89 58 -130 31 -72 65 -148 106 -235 42 -91 93 -206
136 -305 25 -58 53 -115 61 -127 8 -13 11 -23 6 -23 -4 0 -3 -5 4 -12 7 -7 12
-20 12 -29 0 -10 4 -19 9 -21 4 -1 30 -52 56 -113 26 -60 58 -135 72 -165 14
-30 36 -80 50 -110 13 -30 34 -75 45 -100 81 -176 101 -222 102 -232 1 -3 4
-10 9 -14 4 -4 7 -16 7 -26 0 -10 4 -18 9 -18 5 0 12 -10 16 -22 4 -13 8 -25
9 -28 17 -37 50 -111 62 -134 8 -16 14 -35 14 -43 0 -7 5 -13 10 -13 6 0 9 -3
8 -7 -2 -5 7 -28 18 -53 12 -25 28 -61 37 -80 8 -19 42 -95 75 -167 33 -73 57
-133 54 -133 -4 0 -2 -4 3 -8 6 -4 32 -56 59 -117 63 -142 100 -225 137 -302
16 -35 29 -69 29 -77 0 -7 7 -19 15 -26 9 -7 14 -15 11 -17 -2 -2 11 -36 30
-74 19 -38 34 -72 34 -74 0 -3 15 -35 32 -72 18 -38 33 -70 33 -73 1 -5 11
-28 76 -168 22 -46 39 -85 39 -87 0 -3 14 -35 31 -72 17 -38 48 -106 69 -153
21 -47 49 -111 64 -142 67 -147 76 -169 76 -178 0 -6 4 -10 10 -10 5 0 9 -3 8
-7 -1 -10 6 -28 44 -113 17 -36 55 -121 85 -190 30 -69 59 -129 64 -135 6 -6
90 -10 204 -10 153 -1 195 2 195 12 0 7 5 13 10 13 6 0 10 5 10 10 0 6 50 122
111 258 61 136 120 267 131 292 38 86 96 215 124 275 15 33 28 62 29 65 1 3 7
18 13 33 7 16 12 32 12 36 0 5 7 14 15 21 8 7 15 18 15 25 0 7 17 48 37 91 20
43 37 81 38 84 1 3 13 30 27 60 14 30 71 159 128 285 56 127 112 251 125 277
13 25 21 49 18 52 -4 3 -1 6 5 6 7 0 11 3 10 8 -1 4 9 30 22 57 13 28 24 52
25 55 5 14 26 62 55 125 63 137 80 176 104 233 13 31 31 71 40 87 9 17 16 36
16 43 0 6 4 12 8 12 5 0 9 6 9 13 0 6 16 44 34 82 18 39 33 72 34 75 4 12 38
91 100 225 12 28 29 66 38 85 8 19 34 74 56 123 23 48 41 89 41 91 0 2 20 47
45 100 25 53 45 99 45 101 0 2 13 32 29 67 16 35 48 103 70 151 23 49 41 91
41 92 0 2 18 43 40 90 22 47 40 88 40 90 0 3 53 122 96 212 22 48 45 101 49
113 1 3 20 45 43 94 23 49 42 90 42 92 0 1 14 33 31 71 17 37 39 86 49 108 43
96 73 162 86 189 8 16 14 35 14 43 0 7 5 13 10 13 6 0 10 7 10 16 0 9 7 28 15
42 8 15 35 74 61 132 25 58 55 124 65 147 11 24 24 54 29 68 l9 25 -204 -1
-204 -1 -14 -37 c-8 -20 -27 -62 -41 -93 -14 -32 -37 -83 -51 -113 -14 -31
-25 -60 -25 -65 0 -6 -4 -10 -8 -10 -5 0 -9 -6 -9 -12 0 -7 -14 -42 -31 -78
-41 -88 -92 -201 -92 -205 0 -2 -18 -42 -40 -89 -21 -48 -39 -89 -39 -91 0 -3
-7 -18 -15 -33 -17 -29 -68 -145 -66 -150 0 -1 -6 -15 -14 -30 -9 -15 -97
-209 -197 -432 -99 -223 -190 -425 -201 -450 -11 -25 -29 -65 -40 -90 -11 -25
-30 -67 -43 -95 -25 -55 -139 -311 -161 -362 -8 -18 -13 -35 -12 -37 2 -2 -6
-13 -16 -25 -11 -12 -16 -21 -13 -21 3 0 -14 -42 -37 -92 -68 -147 -89 -192
-91 -203 -2 -5 -16 -39 -33 -75 -47 -101 -85 -185 -87 -190 -1 -3 -10 -23 -20
-45 -10 -22 -19 -42 -20 -45 -5 -15 -27 -64 -64 -143 -23 -49 -41 -90 -41 -92
0 -3 -20 -47 -45 -99 -25 -53 -45 -98 -45 -100 0 -3 -13 -33 -29 -68 -15 -35
-59 -130 -96 -213 -37 -82 -80 -178 -96 -213 -16 -34 -29 -64 -29 -66 0 -3
-21 -49 -47 -103 -25 -54 -47 -102 -47 -108 -1 -5 -15 -37 -30 -70 -40 -83
-88 -189 -117 -257 -13 -32 -27 -58 -30 -58 -7 0 -149 311 -149 326 0 7 -7 17
-15 24 -8 6 -14 15 -13 18 1 4 -6 24 -15 46 -9 21 -17 42 -17 47 0 5 -4 9 -9
9 -5 0 -12 12 -16 27 -3 15 -22 61 -42 102 -19 42 -41 90 -48 106 -48 109 -75
167 -137 305 -39 85 -80 175 -91 200 -11 25 -21 47 -22 50 0 3 -8 21 -17 40
-9 19 -27 60 -41 90 -14 30 -41 90 -61 133 -20 43 -36 80 -36 82 0 2 -15 36
-34 77 -92 198 -118 257 -120 268 -1 3 -13 30 -28 60 -14 30 -35 75 -46 100
-11 25 -41 91 -66 148 -25 56 -46 107 -46 112 0 6 -4 10 -10 10 -5 0 -10 7
-10 15 0 9 -16 47 -35 85 -19 39 -35 73 -35 75 -2 11 -35 85 -61 138 -15 31
-25 57 -22 57 3 0 1 6 -4 13 -6 6 -59 119 -117 251 -103 230 -125 278 -182
404 -14 31 -65 143 -111 247 -47 105 -97 215 -111 245 -14 30 -26 57 -27 60 0
3 -11 26 -23 53 -12 26 -32 68 -43 95 -25 54 -100 222 -136 302 -14 30 -35 78
-47 105 -13 28 -42 91 -65 140 l-41 90 -215 2 -214 3 33 -78z"/>
<path d="M10233 21255 l0 -174 1831 2 1831 2 0 172 1 172 -1832 0 -1831 0 0
-174z"/>
<path d="M18507 21352 c-19 -42 -34 -79 -34 -82 1 -3 -8 -19 -21 -37 -12 -17
-22 -36 -22 -42 0 -10 -70 -164 -91 -201 -5 -8 -14 -25 -19 -38 -15 -36 -83
-182 -185 -402 -114 -244 -119 -255 -117 -262 1 -5 -3 -8 -8 -8 -5 0 -9 -3 -8
-7 1 -8 -13 -41 -85 -193 -17 -36 -30 -68 -29 -72 1 -5 -2 -8 -6 -8 -4 0 -14
-16 -21 -36 -7 -19 -39 -92 -72 -160 -32 -69 -59 -129 -59 -134 0 -6 -4 -10
-8 -10 -5 0 -9 -6 -9 -12 0 -12 -33 -83 -129 -283 -16 -33 -29 -62 -29 -65 -1
-3 -16 -36 -34 -75 -18 -38 -44 -92 -56 -120 -12 -27 -44 -95 -70 -150 -26
-55 -58 -125 -72 -155 -14 -30 -40 -86 -58 -125 -62 -134 -75 -164 -75 -174 0
-5 -4 -11 -8 -13 -4 -1 -20 -32 -36 -68 -32 -73 -94 -205 -137 -295 -16 -33
-29 -65 -29 -72 0 -7 -4 -13 -10 -13 -5 0 -9 -3 -8 -7 1 -5 -14 -43 -35 -86
-20 -44 -37 -80 -37 -82 0 -2 -27 -59 -59 -128 -107 -223 -231 -497 -231 -507
0 -6 -4 -10 -10 -10 -5 0 -10 -4 -10 -9 0 -5 -10 -31 -22 -58 -12 -26 -22 -50
-23 -53 -1 -3 -19 -41 -39 -85 -21 -44 -51 -107 -66 -140 -66 -143 -95 -206
-141 -304 -27 -57 -49 -104 -49 -106 0 -1 -24 -54 -53 -116 -30 -63 -55 -118
-56 -124 -1 -5 -9 -20 -17 -32 -8 -13 -13 -24 -12 -24 2 -1 96 -2 210 -3 l206
-2 41 86 c22 47 51 110 64 140 14 30 46 100 72 155 44 93 66 143 70 155 1 3
16 37 34 75 18 39 39 84 46 100 8 17 39 83 69 149 31 65 56 120 56 122 0 3 43
96 106 232 19 40 34 77 34 82 0 6 4 10 8 10 5 0 9 6 9 13 0 6 22 57 48 112 27
55 49 102 50 105 0 3 16 37 34 75 18 39 37 80 42 93 l9 22 1430 0 1430 0 40
-86 c22 -47 40 -90 40 -95 0 -5 4 -9 10 -9 5 0 7 -6 4 -13 -3 -8 2 -20 11 -27
8 -7 15 -16 15 -21 0 -5 14 -39 31 -76 93 -201 106 -232 107 -247 0 -5 4 -12
9 -15 5 -3 20 -31 32 -61 13 -30 42 -93 63 -140 43 -90 86 -186 89 -198 2 -4
15 -32 30 -62 26 -54 61 -128 112 -240 13 -30 39 -86 57 -125 18 -38 50 -108
71 -155 21 -47 47 -101 56 -120 l18 -35 200 0 c110 -1 203 3 206 7 3 5 -6 32
-20 61 -14 29 -43 88 -63 132 -20 44 -58 125 -84 180 -26 55 -48 102 -49 105
-5 15 -28 65 -68 150 -25 52 -72 154 -105 225 -33 72 -79 171 -102 220 -51
109 -145 311 -194 420 -20 44 -46 96 -56 116 -11 20 -17 38 -15 41 3 3 -1 11
-10 18 -8 7 -15 18 -15 24 0 6 -13 38 -29 71 -16 33 -44 92 -61 130 -42 93
-86 187 -121 259 -16 33 -29 65 -29 73 0 7 -4 13 -8 13 -4 0 -19 29 -32 65
-13 36 -28 65 -32 65 -4 0 -8 9 -8 20 0 11 -4 20 -10 20 -5 0 -10 7 -10 16 0
9 -9 33 -19 53 -27 51 -131 271 -131 278 0 3 -23 53 -51 111 -52 109 -72 152
-73 164 -1 4 -7 13 -13 20 -7 6 -13 15 -13 20 0 8 -44 106 -96 213 -18 39 -33
72 -31 75 1 3 -8 21 -21 41 -12 20 -19 39 -15 42 3 4 1 7 -5 7 -7 0 -12 4 -12
9 0 5 -20 51 -44 103 -24 51 -69 149 -101 218 -32 69 -79 171 -106 228 -27 57
-49 105 -49 107 0 3 -71 154 -143 305 -17 36 -31 67 -32 70 0 3 -13 32 -29 65
-16 33 -43 92 -61 130 -18 39 -43 93 -56 120 -13 28 -24 52 -24 55 -1 3 -20
43 -42 90 -22 47 -53 112 -68 145 -15 33 -38 83 -52 112 l-26 52 -197 0 -198
0 -35 -77z m238 -370 c1 -4 8 -21 18 -38 9 -17 13 -34 10 -38 -4 -3 -1 -6 5
-6 7 0 12 -4 12 -9 0 -5 17 -44 37 -88 21 -43 38 -80 38 -83 2 -6 31 -69 90
-195 26 -55 54 -116 62 -135 9 -19 31 -66 48 -105 18 -38 57 -124 88 -190 30
-66 69 -150 86 -187 49 -107 86 -187 126 -273 35 -75 56 -123 60 -135 1 -3 22
-48 47 -100 24 -52 53 -113 63 -135 9 -22 31 -69 47 -104 45 -96 111 -240 175
-381 14 -30 45 -97 69 -149 24 -51 44 -95 44 -97 0 -3 15 -36 34 -74 19 -37
32 -71 28 -74 -3 -3 0 -6 6 -6 7 0 12 -6 13 -12 0 -7 13 -40 28 -73 16 -33 25
-62 21 -65 -10 -6 -2514 -6 -2519 0 -6 7 21 80 29 80 4 0 7 6 7 13 0 6 16 46
36 87 38 82 182 396 217 475 12 28 35 77 50 110 33 70 66 142 160 350 37 83
83 182 100 220 18 39 54 119 81 179 26 60 52 113 58 119 6 6 11 16 11 23 0 6
23 61 51 120 63 137 83 180 102 224 8 19 36 79 61 133 25 55 46 105 46 112 0
7 7 18 15 25 8 7 15 18 15 24 0 7 8 30 19 52 33 69 88 187 114 244 13 30 37
83 53 117 24 54 38 69 39 45z"/>
<path d="M23599 21423 c-4 -27 -3 -5253 1 -5254 3 -1 89 -2 193 -3 l187 -1 0
30 c0 16 1 405 2 862 l1 833 831 1 c457 0 856 2 886 5 30 2 87 5 125 8 39 3
70 5 70 6 0 1 28 3 61 5 l62 4 41 -55 c22 -30 41 -57 41 -60 0 -3 6 -11 13
-19 6 -7 20 -23 29 -36 34 -48 214 -297 290 -402 43 -59 78 -111 78 -116 0 -5
4 -11 8 -13 4 -1 40 -48 80 -103 39 -55 75 -104 79 -110 5 -5 24 -32 43 -60
19 -27 43 -58 53 -69 9 -11 17 -23 17 -28 0 -4 7 -16 16 -25 30 -34 144 -194
144 -203 0 -4 3 -10 8 -12 12 -5 72 -86 72 -97 0 -5 4 -11 8 -13 5 -1 24 -25
43 -52 19 -27 47 -67 63 -90 16 -23 31 -43 35 -46 3 -3 11 -12 16 -21 6 -9 25
-38 44 -65 l34 -49 213 0 213 0 -16 25 c-35 54 -248 345 -255 348 -5 2 -8 8
-8 13 0 5 -17 32 -37 58 -21 27 -55 73 -75 102 -21 30 -67 95 -102 144 -36 50
-71 98 -78 109 -7 10 -35 49 -63 86 -27 37 -57 78 -65 90 -59 85 -302 418
-314 431 -9 9 -16 19 -16 23 0 4 -20 35 -45 67 -25 33 -45 64 -45 69 0 6 -4
10 -8 10 -5 0 -30 34 -58 75 -27 41 -52 75 -56 75 -5 0 -8 6 -8 14 0 8 -3 16
-7 18 -15 6 -63 77 -56 81 5 2 60 21 123 42 63 21 120 41 126 46 6 5 14 6 17
2 4 -3 7 -1 7 5 0 7 4 12 10 12 14 0 145 63 148 72 2 4 8 8 14 8 5 0 23 9 39
21 16 11 29 17 29 12 0 -4 4 -3 8 2 4 6 43 37 87 69 123 92 219 185 300 292
25 32 49 64 54 70 4 5 14 21 21 35 7 13 16 26 20 29 3 3 32 57 63 120 63 129
120 293 142 415 8 44 17 94 20 110 23 124 22 486 -2 582 -3 12 -6 37 -8 55 -1
18 -5 40 -8 48 -3 8 -8 29 -10 45 -12 76 -76 264 -120 351 -56 112 -80 154
-89 154 -4 0 -8 5 -8 10 0 12 -69 106 -115 159 -70 78 -132 137 -215 201 -25
19 -46 38 -48 42 -2 5 -9 8 -16 8 -7 0 -21 8 -32 18 -32 30 -136 89 -255 147
-108 51 -336 135 -379 138 -11 1 -20 5 -20 10 0 4 -4 6 -9 3 -4 -3 -33 1 -62
8 -30 8 -72 17 -93 20 -21 4 -50 9 -64 13 -14 3 -39 7 -56 8 -17 2 -31 4 -31
5 0 1 -20 3 -45 6 -25 2 -70 6 -100 10 -81 9 -2230 15 -2231 7z m2216 -366
c22 -3 40 -6 40 -7 0 -1 20 -3 45 -5 25 -2 56 -6 70 -9 14 -2 43 -7 65 -11
100 -15 257 -59 385 -108 68 -26 220 -103 230 -115 3 -4 21 -16 40 -26 93 -52
259 -212 336 -326 86 -127 164 -313 189 -455 8 -43 9 -50 21 -135 10 -69 10
-356 0 -430 -6 -51 -10 -72 -20 -125 -41 -201 -130 -395 -251 -544 -34 -41
-180 -181 -189 -181 -5 0 -16 -8 -25 -18 -15 -17 -81 -59 -176 -112 -73 -41
-315 -136 -315 -124 0 3 -8 0 -19 -5 -19 -11 -175 -47 -236 -56 -19 -3 -52 -8
-72 -11 -62 -10 -180 -19 -373 -30 -41 -3 -412 -6 -825 -7 l-750 -2 -2 1428
-1 1428 896 -4 c493 -3 915 -7 937 -10z"/>
<path d="M30258 21417 c-3 -10 -3 -269 1 -319 1 -16 121 -17 1831 -17 l1830 0
0 174 0 174 -1829 0 c-1430 0 -1830 -2 -1833 -12z"/>
<path d="M10221 18903 c0 -60 0 -112 -2 -118 -1 -5 0 -14 1 -20 2 -12 2 -206
-1 -220 -1 -5 0 -14 1 -20 2 -12 2 -206 -1 -220 -1 -5 0 -14 1 -20 2 -12 2
-206 -1 -220 -1 -5 0 -14 1 -20 2 -12 2 -206 -1 -220 -1 -5 0 -14 1 -20 2 -12
2 -206 -1 -220 -1 -5 0 -14 1 -20 2 -12 2 -206 -1 -220 -1 -5 0 -14 1 -20 2
-12 2 -206 -1 -220 -1 -5 0 -14 1 -20 2 -12 2 -206 -1 -220 -1 -5 0 -14 1 -20
2 -12 2 -206 -1 -220 -1 -5 0 -14 1 -20 2 -12 2 -206 -1 -220 -1 -5 0 -14 1
-20 3 -12 2 -86 0 -100 -1 -5 -1 -14 0 -20 1 -5 3 -26 4 -45 l1 -35 1823 0
c1226 0 1826 3 1830 10 4 5 7 83 7 173 0 138 -2 162 -15 163 -8 0 -746 1
-1640 2 l-1625 2 0 1078 c0 950 2 1077 15 1078 8 0 647 1 1420 2 l1405 2 0
165 0 165 -1612 3 -1612 2 0 -107z"/>
<path d="M30249 19008 c-4 -9 -3 -2838 1 -2839 3 -1 830 -2 1838 -3 l1832 -1
-2 174 -3 174 -1636 0 -1636 0 -1 1066 c0 586 1 1073 4 1081 3 13 169 15 1411
15 l1408 0 1 168 2 167 -1609 0 c-885 0 -1610 -1 -1610 -2z"/>
<path d="M4 14291 c-2 -2 -4 -300 -4 -662 l0 -657 393 3 c215 2 406 5 422 8
76 11 169 44 203 71 40 32 94 90 109 119 63 122 43 294 -47 387 -28 29 -105
83 -132 93 -27 10 -22 21 20 39 50 22 110 83 135 138 29 62 32 181 7 233 -10
20 -16 37 -13 37 2 0 -12 20 -33 45 -20 25 -43 45 -50 45 -8 0 -14 4 -14 8 0
23 -145 73 -255 88 -48 7 -734 11 -741 5z m646 -202 c65 -3 134 -24 172 -52
28 -21 59 -85 59 -122 0 -18 -2 -31 -13 -87 -9 -40 -70 -87 -138 -106 -8 -2
-120 -5 -247 -7 -162 -3 -235 0 -240 7 -9 16 -10 248 -1 276 4 12 4 22 -1 22
-11 0 -4 62 8 69 9 6 298 6 401 0z m120 -553 c45 -10 100 -42 120 -69 45 -64
47 -166 5 -221 -62 -81 -93 -88 -392 -92 l-253 -3 -1 77 c0 80 0 249 1 292 l0
25 243 -1 c133 -1 258 -4 277 -8z"/>
<path d="M3788 14294 c-2 -1 -26 -5 -53 -8 -73 -6 -210 -56 -235 -85 -3 -4
-21 -18 -40 -32 -19 -15 -50 -41 -67 -60 l-33 -33 -1 40 c-1 21 -1 67 0 102 1
49 -2 62 -14 63 -8 0 -60 2 -115 2 l-100 2 1 -902 0 -903 119 0 120 0 0 340 0
341 39 -40 c110 -112 269 -171 445 -166 109 3 142 8 196 29 19 8 37 14 40 14
11 -1 108 48 146 74 120 80 229 247 258 393 4 17 9 41 11 55 14 70 4 207 -20
290 -26 91 -28 96 -73 175 -35 60 -165 195 -188 195 -7 0 -14 4 -16 8 -3 7
-100 56 -106 53 -1 -1 -16 6 -32 14 -17 9 -30 13 -30 11 0 -3 -15 0 -32 5 -58
17 -211 33 -220 23z m134 -203 c25 -6 58 -16 74 -22 16 -7 35 -13 42 -15 24
-4 144 -123 160 -158 10 -20 24 -55 27 -66 0 -3 6 -21 12 -40 40 -121 27 -284
-33 -407 -26 -53 -103 -143 -123 -143 -6 0 -11 -5 -11 -12 0 -6 -3 -8 -7 -5
-3 4 -13 1 -22 -7 -46 -40 -201 -62 -314 -45 -135 22 -264 136 -312 276 -24
70 -26 80 -30 170 -4 98 13 180 56 266 39 81 90 131 166 168 107 51 208 64
315 40z"/>
<path d="M8117 14295 c-1 -2 -27 -5 -57 -9 -128 -14 -307 -59 -322 -80 -4 -6
-8 -7 -8 -3 0 4 -27 -11 -60 -33 l-60 -41 34 -65 c19 -35 43 -75 53 -88 l18
-25 65 40 c87 54 158 74 290 85 85 8 80 8 140 0 114 -14 161 -38 223 -112 28
-34 53 -114 56 -180 l2 -61 -228 0 c-125 0 -253 -3 -283 -7 -30 -5 -66 -9 -80
-11 -14 -2 -26 -4 -27 -5 -2 -1 -6 -3 -10 -4 -92 -24 -180 -76 -210 -124 -10
-15 -20 -29 -23 -32 -13 -12 -39 -78 -47 -120 -8 -42 -9 -142 0 -147 4 -2 7
-13 7 -24 0 -40 41 -109 97 -164 31 -30 62 -55 70 -55 7 0 13 -5 13 -11 0 -5
5 -7 10 -4 6 3 10 2 10 -3 0 -8 64 -31 135 -49 17 -4 89 -7 160 -7 110 -1 141
3 203 23 39 13 72 27 72 32 0 5 5 9 11 9 6 0 16 6 24 13 7 7 26 24 42 38 15
13 36 35 46 49 19 27 18 31 20 -80 l2 -75 113 -2 113 -2 -4 462 c-3 295 -8
480 -16 511 -50 216 -235 347 -509 359 -45 2 -83 3 -85 2z m373 -843 c0 -80
-3 -97 -24 -130 -52 -83 -162 -163 -249 -180 -47 -10 -199 -8 -222 2 -11 5
-24 10 -30 10 -52 7 -125 69 -142 121 -16 48 -7 130 19 169 53 81 142 101 442
101 l206 0 0 -93z"/>
<path d="M10678 14295 c0 0 -2 -298 -3 -661 l-1 -662 355 3 c324 2 381 5 433
21 9 3 26 7 38 9 48 9 150 70 193 114 45 46 93 123 95 151 0 8 3 29 7 45 9 40
9 140 0 190 -17 96 -83 194 -166 245 -48 29 -149 68 -199 76 -14 2 -36 7 -50
11 -14 3 -119 7 -235 9 -115 1 -216 3 -222 3 -10 1 -13 56 -15 223 l-3 223
-112 0 c-62 0 -114 0 -115 0z m647 -640 c17 -4 39 -8 50 -9 38 -6 74 -25 113
-61 41 -37 60 -84 66 -163 4 -51 -13 -142 -26 -142 -5 0 -7 -4 -4 -8 7 -11
-50 -69 -83 -86 -54 -28 -130 -36 -328 -34 l-203 1 0 257 0 257 193 -2 c105
-2 206 -6 222 -10z"/>
<path d="M14180 14289 c-88 -9 -190 -29 -190 -38 0 -4 -12 -8 -27 -9 -16 -1
-47 -11 -70 -22 -24 -11 -46 -20 -50 -21 -22 -2 -98 -68 -95 -82 2 -12 71
-141 88 -165 1 -2 26 12 55 31 55 35 149 72 207 82 83 13 96 16 105 22 6 3 8
2 5 -3 -4 -5 33 -9 86 -9 101 1 182 -22 227 -65 60 -57 89 -126 94 -221 l4
-65 -227 -1 c-125 0 -258 -3 -296 -7 -84 -9 -187 -40 -236 -71 -58 -37 -117
-115 -136 -180 -13 -46 -16 -68 -16 -120 -1 -50 6 -110 12 -110 1 0 4 -11 6
-25 3 -14 9 -26 14 -28 6 -2 10 -10 10 -17 0 -8 25 -39 56 -70 57 -56 140
-106 204 -121 19 -4 42 -10 50 -12 8 -2 67 -6 130 -8 88 -3 132 1 185 15 94
24 127 43 196 110 l59 57 0 -87 0 -87 114 -1 113 0 -2 462 c-1 254 -5 473 -9
487 -46 186 -140 291 -312 350 -29 10 -55 16 -58 13 -3 -4 -6 -2 -6 3 0 5 -17
10 -38 10 -20 1 -68 4 -107 6 -38 2 -104 1 -145 -3z m440 -835 c0 -84 -2 -94
-30 -135 -34 -53 -90 -106 -142 -136 -149 -87 -412 -56 -480 56 -33 55 -32
150 0 198 42 62 92 89 187 99 28 3 51 7 52 7 1 1 94 2 207 2 l206 0 0 -91z"/>
<path d="M17887 14294 c-1 -1 -22 -4 -47 -7 -61 -7 -96 -15 -155 -33 -27 -8
-57 -16 -65 -18 -39 -6 -190 -91 -190 -107 0 -9 62 -132 71 -139 3 -3 8 -13
12 -22 7 -20 43 -14 51 9 3 8 10 11 16 8 5 -3 10 -2 10 3 0 9 87 51 118 57 9
2 19 4 22 6 3 1 10 3 15 4 6 2 12 4 15 5 44 16 176 24 266 16 178 -17 274
-124 278 -306 l1 -45 -235 -2 c-129 0 -257 -4 -285 -7 -252 -28 -381 -145
-391 -355 -4 -78 13 -156 44 -202 27 -40 80 -99 90 -99 5 0 15 -6 21 -14 19
-23 111 -64 179 -80 41 -9 105 -14 185 -12 177 3 263 36 358 136 l45 49 -1
-80 c0 -44 4 -84 10 -89 5 -4 57 -8 115 -7 l105 2 0 407 c0 362 -7 522 -27
588 -39 128 -113 216 -228 272 -65 31 -75 34 -182 54 -25 5 -217 11 -221 8z
m409 -756 c17 -11 11 -187 -7 -199 -8 -5 -10 -9 -6 -9 10 0 -8 -23 -65 -81
-46 -46 -170 -115 -188 -104 -5 3 -11 2 -14 -3 -8 -14 -155 -11 -213 4 -29 8
-66 22 -81 31 -39 25 -84 72 -77 83 3 5 1 11 -5 15 -13 8 -13 90 0 135 19 67
101 116 210 128 25 2 46 5 47 6 6 5 390 -1 399 -6z"/>
<path d="M19588 14294 c-2 -1 -23 -4 -48 -6 -25 -2 -51 -7 -58 -12 -6 -4 -12
-5 -12 -2 0 3 -26 -4 -57 -15 -60 -20 -153 -75 -153 -90 0 -5 -5 -9 -10 -9 -6
0 -28 -18 -50 -40 -21 -22 -41 -36 -43 -32 -2 4 -4 43 -3 87 1 44 -1 87 -5 95
-6 12 -27 15 -106 14 -55 0 -104 -3 -109 -6 -5 -4 -9 -356 -8 -900 l0 -893
120 -3 119 -3 0 339 0 339 43 -41 c116 -112 271 -168 447 -162 50 2 101 6 115
9 14 4 39 9 55 13 17 3 72 26 123 51 89 43 159 100 228 184 25 30 84 147 84
166 0 7 4 13 8 13 4 0 8 8 9 18 1 9 8 44 15 77 8 33 13 96 13 140 -3 141 -17
198 -81 328 -15 31 -32 57 -36 57 -4 0 -8 6 -8 13 0 19 -113 130 -155 153 -19
10 -35 22 -35 26 0 5 -6 8 -12 8 -7 0 -33 10 -58 22 -63 30 -77 35 -145 48
-55 10 -182 20 -187 14z m137 -204 c82 -18 130 -45 193 -106 67 -66 91 -107
119 -209 22 -79 23 -202 4 -275 -7 -25 -13 -51 -13 -57 -1 -7 -5 -13 -10 -13
-4 0 -8 -6 -8 -13 0 -39 -106 -177 -136 -177 -7 0 -14 -3 -16 -7 -6 -16 -67
-43 -124 -56 -33 -8 -97 -13 -144 -11 -71 1 -97 7 -153 32 -106 48 -215 172
-232 264 -2 10 -6 22 -9 27 -19 30 -23 195 -6 261 6 25 12 52 15 62 9 39 61
131 93 164 67 69 138 102 262 122 55 9 100 7 165 -8z"/>
<path d="M25628 14295 c-2 -2 -28 -5 -57 -6 -65 -4 -168 -36 -260 -81 -149
-74 -293 -272 -318 -438 -2 -14 -6 -41 -9 -60 -30 -191 45 -428 178 -558 29
-28 62 -58 74 -66 41 -29 160 -84 214 -99 93 -27 111 -29 221 -32 101 -3 171
6 264 36 22 7 42 13 45 14 3 0 14 6 25 12 11 6 25 12 30 13 20 5 111 68 143
100 32 33 32 33 14 54 -18 20 -42 48 -94 109 -24 27 -25 27 -45 10 -54 -46
-64 -53 -70 -53 -3 0 -14 -6 -22 -14 -23 -21 -119 -57 -171 -64 -97 -13 -231
-4 -288 20 -15 6 -29 12 -32 12 -3 1 -26 12 -53 26 -64 32 -139 108 -170 172
-27 56 -49 136 -38 141 3 2 238 2 521 1 283 -1 522 0 531 2 28 7 42 79 33 168
-4 45 -8 84 -8 88 -1 3 -4 10 -8 14 -5 4 -8 15 -8 24 0 24 -41 118 -72 167
-81 125 -236 232 -383 264 -77 18 -180 30 -187 24z m146 -225 c92 -28 182
-101 228 -186 23 -44 44 -110 43 -139 0 -20 -7 -20 -420 -20 -366 0 -420 2
-417 15 2 8 5 24 6 35 4 35 29 105 38 105 4 0 8 7 8 16 0 14 80 99 121 129 34
25 141 61 199 67 37 4 149 -9 194 -22z"/>
<path d="M31818 14294 c-2 -1 -23 -4 -48 -6 -25 -2 -51 -7 -58 -12 -6 -4 -12
-5 -12 -1 0 3 -17 -2 -37 -10 -21 -9 -38 -16 -38 -15 0 3 -50 -21 -70 -33 -35
-20 -108 -80 -137 -112 -19 -20 -28 -25 -28 -15 -1 8 -2 55 -3 104 l-2 90
-109 0 -110 -1 -7 -26 c-4 -15 -4 -29 0 -31 6 -4 6 -19 1 -116 -1 -19 1 -44 3
-55 2 -11 0 -28 -5 -38 -5 -9 -6 -23 -1 -29 6 -11 8 -116 3 -143 -1 -5 -1 -12
0 -15 6 -15 5 -79 -1 -102 -4 -15 -4 -30 0 -32 9 -6 7 -68 -3 -84 -4 -7 -3
-12 3 -12 6 0 6 -11 1 -30 -5 -16 -5 -32 -1 -34 8 -6 7 -73 -2 -82 -3 -3 -2
-18 2 -32 5 -15 5 -36 1 -47 -4 -11 -5 -24 -2 -30 8 -12 5 -152 -3 -165 -3 -5
-3 -10 2 -10 10 0 9 -102 -1 -118 -4 -7 -4 -18 0 -24 7 -11 9 -116 4 -143 -1
-5 -1 -14 0 -20 3 -13 3 -127 0 -140 -1 -5 -1 -14 0 -20 5 -23 1 -155 -5 -165
-3 -5 -2 -10 3 -10 5 0 7 -11 4 -25 l-4 -25 121 0 c118 0 121 0 122 23 1 12 0
27 -1 32 -1 6 -1 111 0 235 0 124 1 232 0 240 -2 68 0 133 4 138 3 3 18 -8 33
-25 106 -114 271 -175 458 -168 55 2 123 10 150 19 28 8 51 16 53 16 1 0 18 7
38 15 20 8 38 15 40 15 6 0 107 63 121 75 41 36 113 110 113 116 0 4 6 14 13
21 20 20 74 136 94 203 13 44 18 94 18 190 0 116 -3 139 -28 212 -29 87 -38
105 -80 170 -31 48 -108 129 -153 160 -49 35 -174 94 -183 88 -6 -3 -12 -1
-16 5 -3 5 -16 10 -29 10 -12 0 -26 3 -30 7 -3 4 -21 8 -39 10 -70 6 -157 10
-159 7z m162 -210 c81 -24 123 -48 180 -105 51 -51 117 -170 105 -190 -4 -5
-1 -9 5 -9 6 0 8 -5 5 -10 -4 -6 -2 -16 3 -23 10 -12 9 -215 0 -247 -17 -55
-51 -134 -65 -151 -7 -8 -13 -18 -13 -22 0 -13 -58 -67 -104 -96 -69 -43 -136
-63 -224 -65 -142 -5 -235 29 -326 118 -50 49 -104 142 -106 181 0 3 -6 20
-13 38 -9 21 -13 68 -12 142 2 97 6 119 34 192 54 138 138 211 287 250 80 21
164 20 244 -3z"/>
<path d="M33308 14295 c-2 -2 -34 -5 -73 -8 -83 -7 -115 -13 -173 -33 -23 -7
-48 -14 -54 -14 -19 0 -148 -62 -148 -71 0 -5 -5 -9 -10 -9 -6 0 -19 -8 -30
-18 -19 -17 -18 -19 26 -97 58 -102 59 -103 86 -78 70 64 248 116 388 113 104
-3 220 -25 220 -42 0 -4 6 -8 14 -8 30 0 125 -137 111 -160 -3 -6 -2 -10 2
-10 5 0 10 -10 10 -22 4 -61 5 -94 4 -104 -1 -7 -76 -10 -223 -11 -317 -2
-410 -13 -509 -63 -135 -69 -210 -246 -172 -405 4 -16 7 -32 8 -35 0 -3 11
-23 22 -45 77 -143 244 -224 460 -224 192 1 314 51 401 163 25 33 23 41 26
-84 l1 -65 113 -2 113 -3 -4 468 c-2 257 -6 476 -10 487 -29 96 -39 122 -67
165 -32 50 -118 130 -139 130 -6 0 -11 5 -11 12 0 6 -3 8 -7 5 -3 -4 -15 0
-25 10 -10 9 -18 13 -18 9 0 -3 -13 0 -29 8 -16 9 -31 12 -35 9 -3 -4 -6 -2
-6 3 0 5 -8 10 -17 10 -10 1 -45 5 -78 9 -68 8 -163 14 -167 10z m373 -765 c6
-124 2 -166 -23 -206 -47 -74 -150 -157 -211 -171 -7 -1 -29 -6 -49 -11 -49
-13 -160 -12 -207 0 -99 26 -161 75 -180 143 -19 68 10 178 50 190 10 4 19 10
19 14 0 14 53 33 121 45 36 6 159 11 273 11 176 0 206 -2 207 -15z"/>
<path d="M1483 14237 c2 -26 0 -50 -5 -53 -4 -3 -6 -10 -3 -15 8 -12 10 -218
2 -225 -3 -3 -1 -19 4 -36 5 -20 5 -36 -1 -43 -5 -7 -7 -14 -4 -17 7 -8 9
-217 1 -224 -3 -3 -1 -19 4 -36 4 -17 5 -36 2 -42 -4 -6 -6 -24 -4 -41 6 -58
6 -95 0 -95 -3 0 -3 -21 2 -47 4 -27 3 -53 -3 -60 -5 -7 -5 -14 1 -17 7 -4 7
-15 1 -30 -5 -13 -6 -26 -4 -29 9 -8 12 -77 5 -82 -6 -3 -7 -50 -1 -50 6 0 4
-57 -2 -61 -5 -3 -5 -11 -1 -17 5 -7 8 -21 8 -32 0 -19 7 -20 110 -22 126 -2
109 -13 250 161 22 27 49 59 60 71 11 12 38 43 60 70 22 26 52 62 67 79 14 17
66 78 114 136 49 58 93 110 99 116 5 6 24 28 40 48 17 21 39 47 50 60 11 12
38 44 60 71 22 27 47 56 55 65 8 8 27 30 43 49 15 18 27 29 27 24 1 -4 1 -220
1 -479 l1 -471 116 1 c105 1 117 3 116 19 -1 9 2 17 7 17 6 0 6 7 0 18 -5 10
-6 24 -1 31 4 8 4 27 0 42 -5 18 -5 29 1 29 6 0 7 6 2 13 -6 10 -8 104 -3 132
1 6 1 15 0 20 -1 6 -1 28 -1 50 1 22 2 45 2 50 0 6 0 35 -1 65 0 30 0 63 0 73
0 9 0 33 0 52 0 19 1 41 2 48 1 7 -2 25 -6 41 -4 15 -3 25 1 23 7 -5 9 36 3
53 -1 3 -1 30 -1 60 1 30 2 60 2 65 0 6 0 35 -1 65 -1 121 0 212 2 225 1 6 -2
20 -6 33 -5 14 -3 22 4 22 6 0 8 5 4 11 -4 7 -7 24 -6 38 l1 26 -100 -1 c-109
-1 -137 -10 -162 -52 -9 -15 -26 -38 -39 -52 -13 -14 -46 -52 -73 -85 -28 -33
-55 -66 -62 -73 -7 -7 -29 -34 -50 -59 -21 -26 -45 -54 -53 -63 -8 -9 -32 -36
-52 -61 -56 -67 -162 -193 -173 -205 -5 -6 -28 -32 -50 -58 -22 -27 -48 -58
-58 -70 -11 -11 -33 -38 -50 -60 -18 -21 -49 -57 -69 -80 l-37 -41 -1 478 c0
447 -1 477 -17 478 -10 1 -67 2 -127 3 l-108 1 5 -48z"/>
<path d="M4595 14282 c-19 -3 -20 -9 -17 -104 1 -56 4 -103 6 -105 2 -2 111
-5 242 -6 l239 -2 1 -540 c1 -297 2 -545 3 -552 1 -8 34 -12 116 -12 l115 1 1
26 c0 15 1 263 2 552 l2 525 243 3 242 2 0 105 c0 77 -3 105 -12 106 -34 3
-1166 4 -1183 1z"/>
<path d="M6020 14279 c0 -4 12 -33 26 -65 31 -71 145 -325 185 -412 16 -35 29
-65 29 -67 0 -3 15 -36 34 -75 19 -38 32 -70 29 -70 -3 0 -1 -6 4 -12 6 -7 29
-56 53 -108 23 -52 50 -113 60 -135 48 -104 90 -197 90 -202 0 -2 13 -32 29
-66 16 -34 32 -70 35 -80 5 -16 -13 -65 -66 -173 -21 -45 -90 -104 -137 -118
-73 -22 -231 -3 -231 28 0 5 -3 6 -6 3 -4 -4 -24 7 -45 24 -28 22 -40 26 -46
17 -11 -18 -34 -59 -65 -117 l-27 -51 32 -24 c18 -13 50 -33 72 -43 35 -18 55
-25 115 -40 47 -12 169 -14 221 -4 161 32 260 119 356 313 25 50 46 97 48 102
1 6 17 43 35 81 18 39 34 75 35 80 2 6 21 50 44 98 23 49 41 90 41 92 0 2 21
48 46 102 25 54 47 103 48 108 2 6 15 37 30 70 15 33 36 79 47 103 10 23 28
61 38 85 11 23 47 105 81 182 34 77 72 163 85 190 62 133 83 185 77 187 -6 3
-162 2 -215 -1 -11 -1 -26 -21 -43 -58 -27 -61 -46 -105 -49 -113 -1 -3 -10
-23 -20 -45 -10 -22 -19 -42 -20 -45 -1 -3 -8 -21 -17 -40 -9 -19 -32 -73 -53
-120 -21 -47 -53 -118 -71 -158 -19 -40 -34 -79 -34 -87 0 -8 -5 -15 -12 -15
-6 0 -8 -3 -5 -6 3 -4 1 -16 -5 -28 -7 -11 -13 -23 -14 -26 0 -3 -13 -32 -28
-65 -15 -33 -34 -73 -41 -90 -7 -16 -26 -57 -41 -90 l-27 -60 -21 46 c-11 25
-29 65 -40 90 -22 53 -42 98 -90 202 -20 44 -36 81 -36 84 0 2 -12 30 -26 61
-15 31 -42 93 -61 137 -20 44 -44 100 -55 125 -53 118 -67 150 -98 223 -19 42
-36 77 -39 78 -28 4 -241 3 -241 -2z"/>
<path d="M12119 14279 c-5 -3 -8 -273 -7 -660 l3 -654 116 -3 115 -2 1 257 c1
142 2 266 2 276 1 16 26 17 375 17 290 0 375 -3 378 -12 2 -7 4 -131 3 -275
l0 -261 117 0 c81 0 118 4 119 12 4 71 0 1298 -5 1303 -10 11 -217 9 -225 -2
-4 -5 -7 -132 -7 -280 l1 -271 -377 0 c-208 -1 -378 2 -379 5 0 3 -2 129 -2
280 l-2 274 -108 1 c-60 1 -113 -2 -118 -5z"/>
<path d="M15710 14277 c0 -5 -5 -5 -10 -2 -6 4 -35 1 -65 -5 -30 -6 -58 -11
-62 -12 -5 0 -21 -5 -38 -12 -16 -7 -34 -14 -40 -15 -33 -8 -132 -70 -168
-106 -37 -38 -105 -145 -92 -145 3 0 1 -8 -4 -18 -19 -36 -30 -179 -18 -232 2
-8 7 -33 12 -55 4 -22 16 -51 26 -64 11 -13 19 -28 19 -33 0 -6 19 -29 43 -53
40 -41 109 -83 170 -105 l29 -10 -48 -68 c-55 -76 -62 -86 -86 -113 -10 -10
-17 -20 -16 -21 1 -3 -140 -199 -162 -225 -5 -7 -10 -14 -10 -17 0 -2 57 -4
128 -5 l127 0 45 63 c25 35 52 74 60 86 8 12 31 44 50 70 19 26 41 56 48 67 7
10 30 43 51 73 l39 55 199 -1 c109 -1 200 -2 203 -3 3 0 5 -93 5 -206 l0 -204
110 0 110 1 -2 655 c-1 360 -4 657 -7 661 -10 9 -646 8 -646 -1z m434 -459
c-1 -139 -2 -255 -3 -258 -1 -8 -448 -3 -486 5 -60 12 -149 65 -177 104 -49
69 -57 171 -20 251 26 55 56 84 116 111 72 31 115 36 351 38 l221 2 -2 -253z"/>
<path d="M22050 14260 c-1 -36 -1 -1207 -1 -1257 l1 -42 112 0 c124 0 107 -8
186 88 45 54 110 130 128 151 7 8 33 38 56 66 24 28 54 64 68 80 13 16 47 56
74 89 28 33 55 65 61 71 9 11 36 42 131 155 22 25 53 63 69 83 17 20 46 54 65
75 19 21 44 50 54 65 10 14 22 26 27 26 4 0 8 -186 8 -412 0 -227 0 -441 0
-476 l1 -62 118 1 118 1 -1 651 c0 359 -3 657 -7 662 -5 8 -117 11 -198 6 -8
-1 -60 -56 -115 -122 -55 -67 -113 -136 -130 -154 -16 -18 -43 -50 -60 -71
-16 -21 -35 -42 -40 -48 -6 -6 -46 -54 -90 -106 -44 -52 -82 -97 -85 -100 -3
-3 -27 -32 -55 -65 -27 -33 -52 -62 -55 -65 -3 -3 -27 -32 -55 -65 -27 -33
-54 -65 -60 -71 -5 -6 -23 -27 -39 -47 -16 -20 -32 -37 -35 -37 -3 0 -6 215
-6 477 l0 477 -122 1 -123 0 0 -25z"/>
<path d="M23640 14282 c-6 -2 -10 -47 -10 -108 l0 -104 243 0 243 0 -1 -546
c0 -352 4 -549 10 -554 6 -4 60 -7 120 -6 l110 1 0 547 c0 300 3 549 6 553 4
3 113 7 244 8 l237 2 1 103 c2 84 -1 102 -13 103 -46 3 -1182 3 -1190 1z"/>
<path d="M26621 14280 c-4 -3 -7 -300 -6 -660 l0 -655 120 0 119 0 1 272 c0
149 3 274 6 277 3 4 64 7 134 7 l128 1 24 -28 c42 -50 57 -68 108 -134 27 -36
58 -74 68 -85 11 -11 31 -36 45 -55 14 -19 33 -43 42 -52 8 -9 20 -23 25 -30
95 -119 131 -164 139 -169 4 -4 71 -7 148 -7 l139 -1 -26 32 c-14 18 -29 37
-33 42 -4 6 -25 32 -47 60 -22 27 -43 54 -48 60 -4 5 -17 21 -28 35 -11 14
-30 38 -42 53 -12 15 -30 38 -40 50 -10 12 -28 35 -40 50 -12 16 -48 61 -80
100 -31 40 -61 77 -65 82 -4 6 -26 34 -49 62 -24 28 -43 53 -43 56 0 2 8 13
18 25 9 11 26 32 36 47 44 59 199 251 210 257 6 5 7 8 1 8 -6 0 -5 3 1 8 6 4
35 36 63 72 28 36 66 83 84 104 47 58 86 110 87 116 0 3 -56 5 -124 4 -137 -1
-134 0 -192 -79 -36 -50 -35 -48 -92 -121 -26 -33 -56 -73 -67 -88 -11 -16
-24 -33 -30 -40 -5 -6 -30 -38 -55 -71 -25 -33 -47 -62 -51 -65 -3 -3 -18 -23
-34 -45 -17 -22 -33 -43 -38 -46 -4 -3 -69 -5 -145 -5 l-137 1 -2 275 c0 151
-1 277 -2 280 -1 3 -51 5 -112 5 -61 0 -114 -2 -118 -5z"/>
<path d="M28084 14282 c-20 -3 -21 -9 -21 -108 l1 -104 243 0 243 0 0 -554 0
-555 118 1 119 1 -1 541 c-1 297 0 547 2 554 3 9 61 12 243 12 184 0 239 3
240 13 6 66 2 190 -5 195 -10 6 -1142 10 -1182 4z"/>
<path d="M29511 14282 c-9 -3 3 -37 65 -171 19 -40 37 -84 40 -97 3 -13 12
-28 20 -35 8 -6 14 -17 14 -23 0 -11 194 -449 230 -519 11 -22 20 -42 20 -47
0 -4 22 -54 49 -111 26 -57 65 -144 86 -194 21 -49 42 -94 46 -99 6 -7 -32
-104 -62 -156 -5 -8 -12 -22 -16 -30 -4 -8 -27 -34 -51 -57 -33 -32 -56 -44
-95 -52 -95 -20 -197 5 -271 66 l-29 24 -33 -53 c-18 -29 -41 -70 -51 -91 -17
-39 -17 -39 7 -57 87 -66 198 -98 327 -96 196 4 324 87 418 272 22 44 45 82
50 86 6 4 6 8 2 8 -5 0 1 17 12 38 30 56 80 170 87 198 3 13 10 24 15 24 5 0
9 6 9 14 0 7 16 49 36 92 20 43 44 97 54 119 9 22 34 75 54 119 20 43 36 84
36 92 0 8 5 14 12 14 6 0 9 3 5 6 -3 3 7 31 22 63 26 50 240 528 277 616 11
27 11 35 2 36 -50 4 -211 3 -218 -1 -5 -3 -36 -68 -70 -145 -34 -77 -68 -153
-75 -170 -7 -16 -28 -61 -45 -100 -18 -38 -43 -96 -56 -128 -14 -32 -38 -87
-54 -123 -17 -35 -30 -66 -30 -68 0 -2 -15 -37 -33 -78 -58 -127 -61 -133 -59
-140 1 -5 -3 -8 -8 -8 -5 0 -9 -3 -8 -7 2 -13 -20 -61 -33 -69 -8 -4 -10 -3
-5 4 4 7 3 12 -1 12 -5 0 -15 17 -22 38 -7 20 -26 64 -41 97 -15 33 -35 76
-43 95 -9 19 -29 66 -46 103 -17 38 -31 71 -31 75 0 4 -7 21 -16 37 -9 17 -27
57 -41 90 -14 33 -37 87 -52 120 -15 33 -58 130 -96 215 l-68 155 -113 0 c-63
0 -118 -1 -123 -3z"/>
<path d="M20485 14270 c-11 -4 -7 -15 18 -46 18 -22 41 -53 52 -68 34 -46 76
-99 141 -179 8 -9 14 -21 14 -26 0 -5 4 -11 8 -13 8 -3 74 -84 122 -148 28
-38 72 -92 80 -100 3 -3 14 -18 24 -34 18 -28 18 -30 0 -43 -10 -7 -15 -13
-11 -13 4 0 -1 -8 -10 -19 -10 -10 -28 -31 -39 -47 -24 -32 -277 -360 -297
-384 -43 -54 -137 -179 -137 -183 0 -3 61 -5 135 -5 129 0 136 1 147 21 6 12
14 24 18 27 3 3 19 23 35 45 17 22 32 42 35 45 3 3 32 41 65 85 32 44 62 82
65 85 3 3 17 21 30 40 13 19 30 41 37 48 7 8 27 33 44 58 16 24 32 44 35 44 7
0 53 -54 54 -62 0 -5 8 -17 18 -27 22 -25 18 -19 147 -191 60 -80 116 -151
123 -159 7 -8 20 -24 28 -36 14 -22 21 -23 149 -23 74 0 135 1 135 3 0 2 -22
31 -50 64 -27 33 -50 63 -50 66 0 5 -11 19 -60 73 -16 17 -26 32 -23 32 4 0 0
6 -8 13 -9 6 -38 41 -65 77 -27 36 -51 67 -55 70 -3 3 -18 23 -34 45 -17 22
-33 42 -36 45 -4 3 -24 28 -44 55 -21 28 -53 68 -71 90 l-33 40 27 32 c15 17
66 82 114 145 47 62 95 123 105 135 11 12 28 34 39 48 41 58 76 100 87 107 7
4 8 8 2 8 -5 0 -2 5 8 11 9 5 17 16 17 24 0 7 4 15 9 17 5 2 27 27 50 56 33
42 38 52 24 53 -10 1 -69 1 -132 0 -102 0 -115 -2 -128 -20 -7 -11 -19 -26
-26 -33 -6 -8 -23 -29 -36 -48 -14 -19 -30 -39 -38 -43 -7 -4 -13 -13 -13 -18
0 -9 -44 -70 -80 -109 -8 -9 -44 -56 -80 -103 -58 -77 -90 -105 -90 -78 0 5
-6 16 -13 23 -7 7 -24 29 -37 48 -13 19 -57 76 -97 126 -40 51 -73 97 -73 103
0 6 -4 11 -8 11 -5 0 -26 25 -48 55 -21 30 -42 55 -46 55 -5 0 -8 7 -8 15 0 8
-3 15 -7 16 -40 3 -247 3 -258 -1z"/>
<path d="M9290 14260 c-61 -5 -65 -7 -66 -30 -8 -156 -16 -355 -19 -440 -5
-123 -14 -263 -20 -305 -14 -100 -25 -147 -35 -160 -5 -5 -9 -13 -9 -18 -2
-21 -32 -75 -55 -100 -35 -38 -82 -56 -133 -51 -24 2 -43 3 -44 2 -6 -27 -8
-198 -2 -199 4 -1 17 -3 28 -5 79 -14 132 -17 166 -10 130 28 243 168 273 336
2 14 7 36 10 50 11 51 24 147 30 235 14 180 23 360 25 462 l1 42 289 1 288 1
1 -538 c0 -296 1 -546 1 -556 1 -16 12 -17 118 -15 l118 3 0 644 c0 424 -3
645 -10 647 -25 8 -132 10 -147 2 -10 -5 -18 -5 -18 -1 0 10 -292 9 -308 -1
-7 -4 -12 -4 -12 1 0 10 -212 9 -228 -1 -7 -4 -12 -4 -12 1 0 10 -131 9 -147
0 -6 -4 -13 -4 -15 0 -1 5 -32 6 -68 3z"/>
</g>
</svg>
