<svg width="64" height="64" viewBox="0 0 64 64" fill="none" xmlns="http://www.w3.org/2000/svg">
<g clip-path="url(#clip0_4141_3)">
<path d="M28.5662 41.744C28.0495 41.4812 27.4176 41.679 27.143 42.1895C26.8685 42.7 27.0519 43.3363 27.556 43.6224L30.9331 45.44V47.7557C30.9331 48.3448 31.4107 48.8224 31.9998 48.8224C32.5889 48.8224 33.0664 48.3448 33.0664 47.7557V45.44L36.4435 43.6267C36.7883 43.4512 37.0111 43.1029 37.0257 42.7163C37.0403 42.3297 36.8445 41.9655 36.5139 41.7645C36.1833 41.5636 35.7698 41.5573 35.4334 41.7483L31.9998 43.5893L28.5662 41.744Z" fill="url(#paint0_linear_4141_3)"/>
<path d="M7.4666 4.26666H5.33327C4.74416 4.26666 4.2666 4.74423 4.2666 5.33333C4.2666 5.92243 4.74416 6.4 5.33327 6.4H7.4666C8.05571 6.4 8.53327 5.92243 8.53327 5.33333C8.53327 4.74423 8.05571 4.26666 7.4666 4.26666Z" fill="url(#paint1_linear_4141_3)"/>
<path d="M11.7332 6.4H20.2665C20.8556 6.4 21.3332 5.92243 21.3332 5.33333C21.3332 4.74423 20.8556 4.26666 20.2665 4.26666H11.7332C11.1441 4.26666 10.6665 4.74423 10.6665 5.33333C10.6665 5.92243 11.1441 6.4 11.7332 6.4Z" fill="url(#paint2_linear_4141_3)"/>
<path d="M7.4666 8.53333H5.33327C4.74416 8.53333 4.2666 9.01089 4.2666 9.59999C4.2666 10.1891 4.74416 10.6667 5.33327 10.6667H7.4666C8.05571 10.6667 8.53327 10.1891 8.53327 9.59999C8.53327 9.01089 8.05571 8.53333 7.4666 8.53333Z" fill="url(#paint3_linear_4141_3)"/>
<path d="M11.7332 10.6667H20.2665C20.8556 10.6667 21.3332 10.1891 21.3332 9.59999C21.3332 9.01089 20.8556 8.53333 20.2665 8.53333H11.7332C11.1441 8.53333 10.6665 9.01089 10.6665 9.59999C10.6665 10.1891 11.1441 10.6667 11.7332 10.6667Z" fill="url(#paint4_linear_4141_3)"/>
<path d="M7.4666 12.8H5.33327C4.74416 12.8 4.2666 13.2776 4.2666 13.8667C4.2666 14.4558 4.74416 14.9333 5.33327 14.9333H7.4666C8.05571 14.9333 8.53327 14.4558 8.53327 13.8667C8.53327 13.2776 8.05571 12.8 7.4666 12.8Z" fill="url(#paint5_linear_4141_3)"/>
<path d="M20.2665 12.8H11.7332C11.1441 12.8 10.6665 13.2776 10.6665 13.8667C10.6665 14.4558 11.1441 14.9333 11.7332 14.9333H20.2665C20.8556 14.9333 21.3332 14.4558 21.3332 13.8667C21.3332 13.2776 20.8556 12.8 20.2665 12.8Z" fill="url(#paint6_linear_4141_3)"/>
<path d="M59.7333 0H42.6667C40.3103 0 38.4 1.91025 38.4 4.26667V8.53333H34.1333C32.366 8.53333 30.9333 9.96602 30.9333 11.7333V25.6H13.8667V19.2H21.3333C23.6897 19.2 25.6 17.2897 25.6 14.9333V4.26667C25.6 1.91025 23.6897 0 21.3333 0H4.26667C1.91025 0 0 1.91025 0 4.26667V14.9333C0 17.2897 1.91025 19.2 4.26667 19.2H11.7333V25.6H4.26667C1.91025 25.6 0 27.5103 0 29.8667V59.7333C0 62.0898 1.91025 64 4.26667 64H59.7333C62.0898 64 64 62.0898 64 59.7333V29.8667C64 27.5103 62.0898 25.6 59.7333 25.6H33.0667V11.7333C33.0667 11.1442 33.5442 10.6667 34.1333 10.6667H38.4V14.9333C38.4 17.2897 40.3103 19.2 42.6667 19.2H59.7333C62.0898 19.2 64 17.2897 64 14.9333V4.26667C64 1.91025 62.0898 0 59.7333 0ZM33.0667 32.8011L42.5483 37.9072L40.3563 39.0805C39.8373 39.3595 39.6427 40.0063 39.9216 40.5253C40.2005 41.0443 40.8474 41.2389 41.3664 40.96L43.7333 39.6917V51.0549L33.0667 56.7989V53.6619C33.0667 53.0728 32.5891 52.5952 32 52.5952C31.4109 52.5952 30.9333 53.0728 30.9333 53.6619V56.7989L20.2667 51.0549V48H21.5296C22.0491 49.4694 23.5516 50.3508 25.0877 50.0872C26.6238 49.8237 27.7466 48.4919 27.7466 46.9333C27.7466 45.3748 26.6238 44.043 25.0877 43.7794C23.5516 43.5159 22.0491 44.3973 21.5296 45.8667H20.2667V39.6917L22.6336 40.96C23.1526 41.2389 23.7995 41.0443 24.0784 40.5253C24.3573 40.0063 24.1627 39.3595 23.6437 39.0805L21.4517 37.9072L30.9333 32.8011V34.3296C29.464 34.8491 28.5825 36.3516 28.8461 37.8877C29.1096 39.4238 30.4415 40.5466 32 40.5466C33.5585 40.5466 34.8904 39.4238 35.1539 37.8877C35.4175 36.3516 34.5361 34.8491 33.0667 34.3296V32.8011ZM23.4667 46.9333C23.4667 46.3442 23.9442 45.8667 24.5333 45.8667C25.1224 45.8667 25.6 46.3442 25.6 46.9333C25.6 47.5224 25.1224 48 24.5333 48C23.9442 48 23.4667 47.5224 23.4667 46.9333ZM32 36.2667C32.5891 36.2667 33.0667 36.7442 33.0667 37.3333C33.0667 37.9224 32.5891 38.4 32 38.4C31.4109 38.4 30.9333 37.9224 30.9333 37.3333C30.9333 36.7442 31.4109 36.2667 32 36.2667ZM30.9333 27.7333V30.3787L18.6944 36.9685C18.6795 36.976 18.6635 36.9792 18.6496 36.9877C18.3272 37.1804 18.1299 37.5284 18.1301 37.904V45.8667H14.9333C14.3442 45.8667 13.8667 45.3891 13.8667 44.8V27.7333H30.9333ZM4.26667 17.0667C3.08846 17.0667 2.13333 16.1115 2.13333 14.9333V4.26667C2.13333 3.08846 3.08846 2.13333 4.26667 2.13333H21.3333C22.5115 2.13333 23.4667 3.08846 23.4667 4.26667V14.9333C23.4667 16.1115 22.5115 17.0667 21.3333 17.0667H4.26667ZM2.13333 36.5952L3.59253 37.9627C4.02207 38.3668 4.26595 38.9302 4.26667 39.52V50.08C4.26668 50.6696 4.02266 51.233 3.59253 51.6363L2.13333 53.0037V36.5952ZM58.0736 27.7333H59.7333C60.9115 27.7333 61.8667 28.6885 61.8667 29.8667V59.7333C61.8667 60.9115 60.9115 61.8667 59.7333 61.8667H58.0736C58.4575 61.221 58.6623 60.4845 58.6667 59.7333V29.8667C58.6623 29.1155 58.4575 28.379 58.0736 27.7333ZM54.4 27.7333C55.5782 27.7333 56.5333 28.6885 56.5333 29.8667V59.7333C56.5333 60.9115 55.5782 61.8667 54.4 61.8667H4.26667C3.08846 61.8667 2.13333 60.9115 2.13333 59.7333V55.9285L5.05067 53.1936C5.91019 52.386 6.39838 51.2594 6.4 50.08V39.52C6.39838 38.3406 5.91019 37.2141 5.05067 36.4064L2.13333 33.6715V29.8667C2.13333 28.6885 3.08846 27.7333 4.26667 27.7333H11.7333V44.8C11.7333 46.5673 13.166 48 14.9333 48H18.1333V51.6917C18.1331 52.0844 18.3487 52.4454 18.6944 52.6315L31.4944 59.5232C31.8101 59.6931 32.1899 59.6931 32.5056 59.5232L45.3056 52.6315C45.6513 52.4454 45.8669 52.0844 45.8667 51.6917V37.9083C45.8669 37.5327 45.6696 37.1847 45.3472 36.992C45.3333 36.9835 45.3173 36.9803 45.3024 36.9728L33.0667 30.3787V27.7333H54.4ZM61.8667 14.9333C61.8667 16.1115 60.9115 17.0667 59.7333 17.0667H42.6667C41.4885 17.0667 40.5333 16.1115 40.5333 14.9333V4.26667C40.5333 3.08846 41.4885 2.13333 42.6667 2.13333H59.7333C60.9115 2.13333 61.8667 3.08846 61.8667 4.26667V14.9333Z" fill="url(#paint7_linear_4141_3)"/>
<path d="M45.8665 4.26666H43.7332C43.1441 4.26666 42.6665 4.74423 42.6665 5.33333C42.6665 5.92243 43.1441 6.4 43.7332 6.4H45.8665C46.4556 6.4 46.9332 5.92243 46.9332 5.33333C46.9332 4.74423 46.4556 4.26666 45.8665 4.26666Z" fill="url(#paint8_linear_4141_3)"/>
<path d="M58.6669 4.26666H50.1336C49.5445 4.26666 49.0669 4.74423 49.0669 5.33333C49.0669 5.92243 49.5445 6.4 50.1336 6.4H58.6669C59.256 6.4 59.7336 5.92243 59.7336 5.33333C59.7336 4.74423 59.256 4.26666 58.6669 4.26666Z" fill="url(#paint9_linear_4141_3)"/>
<path d="M45.8665 8.53333H43.7332C43.1441 8.53333 42.6665 9.01089 42.6665 9.59999C42.6665 10.1891 43.1441 10.6667 43.7332 10.6667H45.8665C46.4556 10.6667 46.9332 10.1891 46.9332 9.59999C46.9332 9.01089 46.4556 8.53333 45.8665 8.53333Z" fill="url(#paint10_linear_4141_3)"/>
<path d="M58.6669 8.53333H50.1336C49.5445 8.53333 49.0669 9.01089 49.0669 9.59999C49.0669 10.1891 49.5445 10.6667 50.1336 10.6667H58.6669C59.256 10.6667 59.7336 10.1891 59.7336 9.59999C59.7336 9.01089 59.256 8.53333 58.6669 8.53333Z" fill="url(#paint11_linear_4141_3)"/>
<path d="M45.8665 12.8H43.7332C43.1441 12.8 42.6665 13.2776 42.6665 13.8667C42.6665 14.4558 43.1441 14.9333 43.7332 14.9333H45.8665C46.4556 14.9333 46.9332 14.4558 46.9332 13.8667C46.9332 13.2776 46.4556 12.8 45.8665 12.8Z" fill="url(#paint12_linear_4141_3)"/>
<path d="M58.6669 12.8H50.1336C49.5445 12.8 49.0669 13.2776 49.0669 13.8667C49.0669 14.4558 49.5445 14.9333 50.1336 14.9333H58.6669C59.256 14.9333 59.7336 14.4558 59.7336 13.8667C59.7336 13.2776 59.256 12.8 58.6669 12.8Z" fill="url(#paint13_linear_4141_3)"/>
<path d="M44.8001 57.6H42.6668C42.0777 57.6 41.6001 58.0775 41.6001 58.6666C41.6001 59.2557 42.0777 59.7333 42.6668 59.7333H44.8001C45.3892 59.7333 45.8668 59.2557 45.8668 58.6666C45.8668 58.0775 45.3892 57.6 44.8001 57.6Z" fill="url(#paint14_linear_4141_3)"/>
<path d="M53.3333 57.6H49.0667C48.4776 57.6 48 58.0775 48 58.6666C48 59.2557 48.4776 59.7333 49.0667 59.7333H53.3333C53.9224 59.7333 54.4 59.2557 54.4 58.6666C54.4 58.0775 53.9224 57.6 53.3333 57.6Z" fill="url(#paint15_linear_4141_3)"/>
<path d="M47.9998 55.4666H53.3331C53.9222 55.4666 54.3998 54.9891 54.3998 54.4C54.3998 53.8109 53.9222 53.3333 53.3331 53.3333H47.9998C47.4107 53.3333 46.9331 53.8109 46.9331 54.4C46.9331 54.9891 47.4107 55.4666 47.9998 55.4666Z" fill="url(#paint16_linear_4141_3)"/>
<path d="M11.7332 51.2H9.59987C9.01077 51.2 8.5332 51.6776 8.5332 52.2667V53.3333C8.5332 53.9224 9.01077 54.4 9.59987 54.4C10.189 54.4 10.6665 53.9224 10.6665 53.3333H11.7332C12.3223 53.3333 12.7999 52.8558 12.7999 52.2667C12.7999 51.6776 12.3223 51.2 11.7332 51.2Z" fill="url(#paint17_linear_4141_3)"/>
<path d="M11.7332 57.6H10.6665C10.6665 57.0109 10.189 56.5333 9.59987 56.5333C9.01077 56.5333 8.5332 57.0109 8.5332 57.6V58.6667C8.5332 59.2558 9.01077 59.7333 9.59987 59.7333H11.7332C12.3223 59.7333 12.7999 59.2558 12.7999 58.6667C12.7999 58.0776 12.3223 57.6 11.7332 57.6Z" fill="url(#paint18_linear_4141_3)"/>
<path d="M19.2 56.5333C18.6109 56.5333 18.1333 57.0109 18.1333 57.6H17.0667C16.4776 57.6 16 58.0776 16 58.6667C16 59.2558 16.4776 59.7333 17.0667 59.7333H19.2C19.7891 59.7333 20.2667 59.2558 20.2667 58.6667V57.6C20.2667 57.0109 19.7891 56.5333 19.2 56.5333Z" fill="url(#paint19_linear_4141_3)"/>
</g>
<defs>
<linearGradient id="paint0_linear_4141_3" x1="37.0265" y1="44.773" x2="27.0156" y2="44.773" gradientUnits="userSpaceOnUse">
<stop stop-color="#9281CE"/>
<stop offset="1" stop-color="#68DBFF"/>
</linearGradient>
<linearGradient id="paint1_linear_4141_3" x1="8.53327" y1="5.20234" x2="4.2666" y2="5.20234" gradientUnits="userSpaceOnUse">
<stop stop-color="#9281CE"/>
<stop offset="1" stop-color="#68DBFF"/>
</linearGradient>
<linearGradient id="paint2_linear_4141_3" x1="21.3332" y1="5.20234" x2="10.6665" y2="5.20234" gradientUnits="userSpaceOnUse">
<stop stop-color="#9281CE"/>
<stop offset="1" stop-color="#68DBFF"/>
</linearGradient>
<linearGradient id="paint3_linear_4141_3" x1="8.53327" y1="9.469" x2="4.2666" y2="9.469" gradientUnits="userSpaceOnUse">
<stop stop-color="#9281CE"/>
<stop offset="1" stop-color="#68DBFF"/>
</linearGradient>
<linearGradient id="paint4_linear_4141_3" x1="21.3332" y1="9.469" x2="10.6665" y2="9.469" gradientUnits="userSpaceOnUse">
<stop stop-color="#9281CE"/>
<stop offset="1" stop-color="#68DBFF"/>
</linearGradient>
<linearGradient id="paint5_linear_4141_3" x1="8.53327" y1="13.7357" x2="4.2666" y2="13.7357" gradientUnits="userSpaceOnUse">
<stop stop-color="#9281CE"/>
<stop offset="1" stop-color="#68DBFF"/>
</linearGradient>
<linearGradient id="paint6_linear_4141_3" x1="21.3332" y1="13.7357" x2="10.6665" y2="13.7357" gradientUnits="userSpaceOnUse">
<stop stop-color="#9281CE"/>
<stop offset="1" stop-color="#68DBFF"/>
</linearGradient>
<linearGradient id="paint7_linear_4141_3" x1="64" y1="28.0702" x2="-1.81162e-08" y2="28.0702" gradientUnits="userSpaceOnUse">
<stop stop-color="#9281CE"/>
<stop offset="1" stop-color="#68DBFF"/>
</linearGradient>
<linearGradient id="paint8_linear_4141_3" x1="46.9332" y1="5.20234" x2="42.6665" y2="5.20234" gradientUnits="userSpaceOnUse">
<stop stop-color="#9281CE"/>
<stop offset="1" stop-color="#68DBFF"/>
</linearGradient>
<linearGradient id="paint9_linear_4141_3" x1="59.7336" y1="5.20234" x2="49.0669" y2="5.20234" gradientUnits="userSpaceOnUse">
<stop stop-color="#9281CE"/>
<stop offset="1" stop-color="#68DBFF"/>
</linearGradient>
<linearGradient id="paint10_linear_4141_3" x1="46.9332" y1="9.469" x2="42.6665" y2="9.469" gradientUnits="userSpaceOnUse">
<stop stop-color="#9281CE"/>
<stop offset="1" stop-color="#68DBFF"/>
</linearGradient>
<linearGradient id="paint11_linear_4141_3" x1="59.7336" y1="9.469" x2="49.0669" y2="9.469" gradientUnits="userSpaceOnUse">
<stop stop-color="#9281CE"/>
<stop offset="1" stop-color="#68DBFF"/>
</linearGradient>
<linearGradient id="paint12_linear_4141_3" x1="46.9332" y1="13.7357" x2="42.6665" y2="13.7357" gradientUnits="userSpaceOnUse">
<stop stop-color="#9281CE"/>
<stop offset="1" stop-color="#68DBFF"/>
</linearGradient>
<linearGradient id="paint13_linear_4141_3" x1="59.7336" y1="13.7357" x2="49.0669" y2="13.7357" gradientUnits="userSpaceOnUse">
<stop stop-color="#9281CE"/>
<stop offset="1" stop-color="#68DBFF"/>
</linearGradient>
<linearGradient id="paint14_linear_4141_3" x1="45.8668" y1="58.5356" x2="41.6001" y2="58.5356" gradientUnits="userSpaceOnUse">
<stop stop-color="#9281CE"/>
<stop offset="1" stop-color="#68DBFF"/>
</linearGradient>
<linearGradient id="paint15_linear_4141_3" x1="54.4" y1="58.5356" x2="48" y2="58.5356" gradientUnits="userSpaceOnUse">
<stop stop-color="#9281CE"/>
<stop offset="1" stop-color="#68DBFF"/>
</linearGradient>
<linearGradient id="paint16_linear_4141_3" x1="54.3998" y1="54.269" x2="46.9331" y2="54.269" gradientUnits="userSpaceOnUse">
<stop stop-color="#9281CE"/>
<stop offset="1" stop-color="#68DBFF"/>
</linearGradient>
<linearGradient id="paint17_linear_4141_3" x1="12.7999" y1="52.6035" x2="8.5332" y2="52.6035" gradientUnits="userSpaceOnUse">
<stop stop-color="#9281CE"/>
<stop offset="1" stop-color="#68DBFF"/>
</linearGradient>
<linearGradient id="paint18_linear_4141_3" x1="12.7999" y1="57.9368" x2="8.5332" y2="57.9368" gradientUnits="userSpaceOnUse">
<stop stop-color="#9281CE"/>
<stop offset="1" stop-color="#68DBFF"/>
</linearGradient>
<linearGradient id="paint19_linear_4141_3" x1="20.2667" y1="57.9368" x2="16" y2="57.9368" gradientUnits="userSpaceOnUse">
<stop stop-color="#9281CE"/>
<stop offset="1" stop-color="#68DBFF"/>
</linearGradient>
<clipPath id="clip0_4141_3">
<rect width="64" height="64" fill="white"/>
</clipPath>
</defs>
</svg>
