<svg width="64" height="64" viewBox="0 0 64 64" fill="none" xmlns="http://www.w3.org/2000/svg">
<g clip-path="url(#clip0_4141_2)">
<path d="M55.6715 43.0133C54.6141 41.4485 52.8432 40.5174 50.9547 40.5333H47.3878L59.5595 21.9168C59.7748 21.5978 59.8016 21.1875 59.6296 20.8433C59.4575 20.499 59.1134 20.2741 58.729 20.2547C58.3446 20.2354 57.9796 20.4246 57.7739 20.7499L39.9563 48H24.0438L6.22616 20.7499C6.02043 20.4246 5.65543 20.2354 5.27105 20.2547C4.88666 20.2741 4.54251 20.499 4.37048 20.8433C4.19845 21.1875 4.22523 21.5978 4.44056 21.9168L16.6123 40.5333H13.0454C11.1553 40.5176 9.38323 41.4505 8.32642 43.0176L0.533356 54.8043C0.183702 55.3129 -0.00236624 55.9161 2.27189e-05 56.5334V60.8C2.27189e-05 62.5673 1.43271 64 3.20002 64H60.8C62.5673 64 64 62.5673 64 60.8V56.5334C64.0013 55.9196 63.8152 55.3201 63.4667 54.815L55.6715 43.0133ZM16.6976 42.6667H18.0075L22.5739 49.6502C22.7709 49.9516 23.1066 50.1333 23.4667 50.1334H40.5334C40.8934 50.1333 41.2292 49.9516 41.4262 49.6502L45.9926 42.6667H48.368L49.3814 44.9867L49.055 45.1499C47.6364 45.8707 46.9567 47.5193 47.455 49.0304L48.5952 52.4502C48.9656 53.5794 49.9343 54.4082 51.1072 54.5995L53.7792 55.0475L54.9003 57.6H10.1643L16.6976 42.6667ZM2.30829 55.9904L10.1035 44.1974C10.7657 43.2265 11.8702 42.6518 13.0454 42.6667H14.3691L7.83576 57.6H3.32802C2.70427 57.6334 2.17059 57.1569 2.13336 56.5334C2.13422 56.3387 2.19532 56.149 2.30829 55.9904V55.9904ZM61.8667 60.8C61.8667 61.3891 61.3891 61.8667 60.8 61.8667H3.20002C2.61092 61.8667 2.13336 61.3891 2.13336 60.8V59.5115C2.5151 59.6563 2.91974 59.7315 3.32802 59.7334H60.672C61.0803 59.7315 61.4849 59.6563 61.8667 59.5115V60.8ZM60.672 57.6H57.231L55.4944 53.6416C55.3249 53.2531 54.9413 53.0018 54.5174 53.0016L51.4582 52.4928C51.0693 52.4276 50.7481 52.1532 50.623 51.7792L49.4806 48.352C49.3092 47.8471 49.5369 47.2932 50.0139 47.0549L50.9419 46.591C51.2702 46.542 51.5569 46.343 51.7177 46.0526C51.8785 45.7622 51.8949 45.4136 51.7622 45.1094L50.6955 42.6667H50.9536C52.1272 42.6515 53.2306 43.2244 53.8934 44.1931L61.6992 56C61.8083 56.1565 61.8667 56.3426 61.8667 56.5334C61.8295 57.1569 61.2958 57.6334 60.672 57.6V57.6Z" fill="url(#paint0_linear_4141_2)"/>
<path d="M30.9333 19.2C30.9333 19.7891 31.4109 20.2667 32 20.2667C32.5891 20.2667 33.0667 19.7891 33.0667 19.2V16.64L36.7723 14.6485C37.2913 14.3693 37.4856 13.7222 37.2064 13.2032C36.9272 12.6842 36.2801 12.4898 35.7611 12.7691L32 14.7893L28.2389 12.7627C27.7199 12.4834 27.0728 12.6778 26.7936 13.1968C26.5144 13.7158 26.7087 14.3629 27.2277 14.6421L30.9333 16.64V19.2Z" fill="url(#paint1_linear_4141_2)"/>
<path d="M17.628 24.4053L31.4946 31.872C31.8103 32.0419 32.1902 32.0419 32.5058 31.872L46.3725 24.4053C46.7179 24.2194 46.9333 23.8589 46.9336 23.4667V8.53333C46.9334 8.15813 46.7362 7.8106 46.4141 7.61813C46.4002 7.6096 46.3842 7.6064 46.3693 7.59893L32.5026 0.132262C32.187 -0.0376583 31.8071 -0.0376583 31.4914 0.132262L17.6248 7.59893C17.6098 7.6064 17.5938 7.6096 17.58 7.61813C17.2604 7.81219 17.0657 8.15942 17.0669 8.53333V23.4667C17.0671 23.8589 17.2826 24.2194 17.628 24.4053ZM19.2002 10.3179L21.8946 11.7664C22.4136 12.0456 23.0607 11.8513 23.34 11.3323C23.6192 10.8133 23.4248 10.1662 22.9058 9.88693L20.3853 8.53333L32.0002 2.2784L43.6152 8.53333L41.0946 9.888C40.5756 10.1672 40.3813 10.8143 40.6605 11.3333C40.9397 11.8523 41.5868 12.0467 42.1058 11.7675L44.8002 10.3179V22.8267L33.0669 29.1477V25.6C33.0669 25.0109 32.5893 24.5333 32.0002 24.5333C31.4111 24.5333 30.9336 25.0109 30.9336 25.6V29.1477L19.2002 22.8267V10.3179Z" fill="url(#paint2_linear_4141_2)"/>
</g>
<defs>
<linearGradient id="paint0_linear_4141_2" x1="64" y1="39.4405" x2="-1.81162e-08" y2="39.4405" gradientUnits="userSpaceOnUse">
<stop stop-color="#9281CE"/>
<stop offset="1" stop-color="#68DBFF"/>
</linearGradient>
<linearGradient id="paint1_linear_4141_2" x1="37.334" y1="15.9823" x2="26.666" y2="15.9823" gradientUnits="userSpaceOnUse">
<stop stop-color="#9281CE"/>
<stop offset="1" stop-color="#68DBFF"/>
</linearGradient>
<linearGradient id="paint2_linear_4141_2" x1="46.9336" y1="14.0375" x2="17.0669" y2="14.0375" gradientUnits="userSpaceOnUse">
<stop stop-color="#9281CE"/>
<stop offset="1" stop-color="#68DBFF"/>
</linearGradient>
<clipPath id="clip0_4141_2">
<rect width="64" height="64" fill="white"/>
</clipPath>
</defs>
</svg>
