<svg width="64" height="64" viewBox="0 0 64 64" fill="none" xmlns="http://www.w3.org/2000/svg">
<path d="M28.0488 3.2196H24.1538C23.6359 3.2196 23.2163 3.63935 23.2163 4.1571C23.2163 4.67498 23.6359 5.0946 24.1538 5.0946H28.0488C28.5667 5.0946 28.9863 4.67498 28.9863 4.1571C28.9863 3.63935 28.5667 3.2196 28.0488 3.2196Z" fill="url(#paint0_linear_4141_4)"/>
<path d="M20.6775 3.23736C20.2261 3.33311 19.9238 3.71786 19.9238 4.15736C19.9238 4.67886 20.3503 5.09486 20.8613 5.09486C21.3702 5.09486 21.7988 4.68161 21.7988 4.15736C21.7988 3.55723 21.2436 3.12361 20.6775 3.23736Z" fill="url(#paint1_linear_4141_4)"/>
<path d="M25.0496 54.54H23.6846C23.1667 54.54 22.7471 54.9596 22.7471 55.4775C22.7471 55.9954 23.1667 56.415 23.6846 56.415H25.0496C25.5674 56.415 25.9871 55.9954 25.9871 55.4775C25.9871 54.9596 25.5676 54.54 25.0496 54.54Z" fill="url(#paint2_linear_4141_4)"/>
<path d="M56.5423 19.0691C56.3213 18.6009 55.7628 18.4004 55.2944 18.6215C54.8262 18.8425 54.6257 19.4011 54.8468 19.8694C55.1709 20.5561 55.3352 21.2915 55.3352 22.055C55.3352 24.8843 53.0336 27.1859 50.2042 27.1859C47.2738 27.1859 44.8555 24.6956 45.0908 21.6514C45.0908 21.6509 45.0908 21.6504 45.0908 21.6497C45.2983 19.0094 47.5117 16.924 50.2042 16.924C50.8837 16.924 51.5447 17.0554 52.1687 17.3143C52.6469 17.5128 53.1956 17.2859 53.3939 16.8078C53.5924 16.3295 53.3656 15.7809 52.8874 15.5825C52.0344 15.2284 51.1315 15.0489 50.204 15.0489C46.825 15.0489 43.9973 17.4535 43.3414 20.6411H42.1019V6.74837C42.1022 3.02737 39.0749 0 35.3538 0H13.5382C9.81705 0 6.78955 3.02737 6.78955 6.74837V13.799C6.78955 14.3169 7.2093 14.7365 7.72705 14.7365C8.24493 14.7365 8.66455 14.3169 8.66455 13.799V6.74837C8.66468 4.06125 10.8509 1.875 13.5383 1.875H35.3539C38.041 1.875 40.2272 4.06112 40.2272 6.74837V20.6414H38.8828V6.7485C38.8828 4.80275 37.2998 3.21937 35.3539 3.21937H32.6349C31.584 3.21937 30.7285 4.07438 30.7278 5.126V5.74162C30.7278 6.0465 30.4701 6.30412 30.1652 6.30412H18.7271C18.4222 6.30412 18.1644 6.0465 18.1644 5.74162V5.12563C18.1639 4.0745 17.3084 3.21937 16.2573 3.21937H13.5384C11.5926 3.21937 10.0094 4.8025 10.0094 6.7485V57.2515C10.0094 59.1973 11.5924 60.7804 13.5384 60.7804H35.3541C37.2998 60.7804 38.8829 59.1974 38.8829 57.2515V54.4933C38.8829 53.9755 38.4633 53.5558 37.9454 53.5558C37.4277 53.5558 37.0079 53.9755 37.0079 54.4933V57.2515C37.0079 58.1634 36.2661 58.9053 35.3542 58.9053H13.5383C12.6263 58.9053 11.8844 58.1632 11.8844 57.2515V6.7485C11.8844 5.8365 12.6264 5.0945 13.5383 5.0945H16.2572C16.2749 5.0945 16.2893 5.10887 16.2893 5.12612V5.74175C16.2893 7.08575 17.3828 8.17937 18.7271 8.17937H30.1652C31.5093 8.17937 32.6029 7.08587 32.6029 5.74175V5.12675C32.6029 5.109 32.6173 5.0945 32.635 5.0945H35.3541C36.2659 5.0945 37.0078 5.8365 37.0078 6.7485V20.6414H27.9189L26.9453 16.0346C26.8538 15.6011 26.4712 15.291 26.0281 15.291H22.0332C21.5153 15.291 21.0957 15.7106 21.0957 16.2285C21.0957 16.7464 21.5153 17.166 22.0332 17.166H25.2679C25.5528 18.5139 29.3799 36.8867 29.8297 39.0149C29.9164 39.4541 30.3017 39.7706 30.7493 39.7706H31.0841C31.0252 39.9851 30.9911 40.2099 30.9911 40.4429C30.9911 41.8474 32.1338 42.9902 33.5384 42.9902C34.9431 42.9902 36.0858 41.8475 36.0858 40.4429C36.0858 40.2099 36.0517 39.9853 35.9928 39.7706H37.0078V50.1181C37.0078 50.636 37.4275 51.0556 37.9453 51.0556C38.4632 51.0556 38.8828 50.636 38.8828 50.1181V39.7706H40.2272V57.2515C40.2272 59.9387 38.0409 62.1249 35.3539 62.1249H13.5382C10.8508 62.1249 8.66468 59.9386 8.66468 57.2515V18.1742C8.66468 17.6564 8.24505 17.2367 7.72718 17.2367C7.20943 17.2367 6.78968 17.6564 6.78968 18.1742V57.2516C6.78968 60.9728 9.81718 64 13.5382 64H35.3538C39.0749 64 42.1021 60.9726 42.1021 57.2516V39.7707H43.0312C42.9723 39.9852 42.9382 40.21 42.9382 40.443C42.9382 41.8475 44.0809 42.9904 45.4855 42.9904C46.89 42.9904 48.0329 41.8476 48.0329 40.443C48.0329 39.0709 46.9415 37.9516 45.5817 37.9005C45.55 37.8973 45.518 37.8956 45.4857 37.8956C44.5084 37.8956 33.0612 37.8956 31.5196 37.8956L31.0834 35.689H46.8633C47.3063 35.689 47.6889 35.3787 47.7805 34.9454L49.0448 28.9635C49.4222 29.0266 49.809 29.0611 50.204 29.0611C54.0672 29.0611 57.2102 25.9182 57.2102 22.0551C57.2103 21.0129 56.9855 20.0081 56.5423 19.0691ZM45.4857 39.7707C45.8564 39.7707 46.1579 40.0723 46.1579 40.443C46.1579 40.8138 45.8564 41.1152 45.4857 41.1152C45.1149 41.1152 44.8134 40.8138 44.8134 40.443C44.8134 40.0723 45.1149 39.7707 45.4857 39.7707ZM33.5383 39.7707C33.9091 39.7707 34.2106 40.0723 34.2106 40.443C34.2106 40.8138 33.9091 41.1152 33.5383 41.1152C33.1676 41.1152 32.866 40.8138 32.866 40.443C32.866 40.0723 33.1676 39.7707 33.5383 39.7707ZM46.1032 33.814H30.7027L28.3149 22.5165C32.5678 22.5165 38.1922 22.5165 43.2131 22.5165C43.3782 25.0568 44.9093 27.3231 47.246 28.4071L46.1032 33.814Z" fill="url(#paint3_linear_4141_4)"/>
<path d="M52.2332 21.1176H51.1418V20.0262C51.1418 19.5084 50.7222 19.0887 50.2043 19.0887C49.6864 19.0887 49.2668 19.5084 49.2668 20.0262V21.1176H48.1753C47.6575 21.1176 47.2378 21.5372 47.2378 22.0551C47.2378 22.573 47.6575 22.9926 48.1753 22.9926H49.2668V24.0841C49.2668 24.602 49.6864 25.0216 50.2043 25.0216C50.7222 25.0216 51.1418 24.602 51.1418 24.0841V22.9926H52.2332C52.751 22.9926 53.1707 22.573 53.1707 22.0551C53.1707 21.5372 52.7512 21.1176 52.2332 21.1176Z" fill="url(#paint4_linear_4141_4)"/>
<path d="M21.2658 20.6415H18.5288C18.0109 20.6415 17.5913 21.0611 17.5913 21.579C17.5913 22.0969 18.0109 22.5165 18.5288 22.5165H21.2658C21.7837 22.5165 22.2033 22.0969 22.2033 21.579C22.2033 21.0611 21.7837 20.6415 21.2658 20.6415Z" fill="url(#paint5_linear_4141_4)"/>
<path d="M22.2355 25.0322H19.4985C18.9807 25.0322 18.561 25.4519 18.561 25.9697C18.561 26.4876 18.9807 26.9072 19.4985 26.9072H22.2355C22.7534 26.9072 23.173 26.4876 23.173 25.9697C23.173 25.452 22.7533 25.0322 22.2355 25.0322Z" fill="url(#paint6_linear_4141_4)"/>
<path d="M24.1755 33.814H21.4385C20.9206 33.814 20.501 34.2337 20.501 34.7515C20.501 35.2693 20.9206 35.689 21.4385 35.689H24.1755C24.6934 35.689 25.113 35.2693 25.113 34.7515C25.113 34.2338 24.6934 33.814 24.1755 33.814Z" fill="url(#paint7_linear_4141_4)"/>
<path d="M23.2053 29.4231H20.4683C19.9504 29.4231 19.5308 29.8427 19.5308 30.3606C19.5308 30.8785 19.9504 31.2981 20.4683 31.2981H23.2053C23.7231 31.2981 24.1428 30.8785 24.1428 30.3606C24.1428 29.8428 23.723 29.4231 23.2053 29.4231Z" fill="url(#paint8_linear_4141_4)"/>
<path d="M28.3144 43.8462H20.0359C18.3851 43.8462 17.042 45.1892 17.042 46.8401C17.042 48.4908 18.385 49.8339 20.0359 49.8339H28.3144C29.9651 49.8339 31.3082 48.4909 31.3082 46.8401C31.3082 45.1892 29.9652 43.8462 28.3144 43.8462ZM28.3144 47.9588H20.0359C19.419 47.9588 18.9171 47.4571 18.9171 46.8401C18.9171 46.2232 19.419 45.7213 20.0359 45.7213H28.3144C28.9314 45.7213 29.4331 46.2232 29.4331 46.8401C29.4331 47.4569 28.9312 47.9588 28.3144 47.9588Z" fill="url(#paint9_linear_4141_4)"/>
<defs>
<linearGradient id="paint0_linear_4141_4" x1="28.9863" y1="4.04197" x2="23.2163" y2="4.04197" gradientUnits="userSpaceOnUse">
<stop stop-color="#9281CE"/>
<stop offset="1" stop-color="#68DBFF"/>
</linearGradient>
<linearGradient id="paint1_linear_4141_4" x1="21.7988" y1="4.04184" x2="19.9238" y2="4.04184" gradientUnits="userSpaceOnUse">
<stop stop-color="#9281CE"/>
<stop offset="1" stop-color="#68DBFF"/>
</linearGradient>
<linearGradient id="paint2_linear_4141_4" x1="25.9871" y1="55.3623" x2="22.7471" y2="55.3623" gradientUnits="userSpaceOnUse">
<stop stop-color="#9281CE"/>
<stop offset="1" stop-color="#68DBFF"/>
</linearGradient>
<linearGradient id="paint3_linear_4141_4" x1="57.2102" y1="28.0702" x2="6.78955" y2="28.0702" gradientUnits="userSpaceOnUse">
<stop stop-color="#9281CE"/>
<stop offset="1" stop-color="#68DBFF"/>
</linearGradient>
<linearGradient id="paint4_linear_4141_4" x1="53.1707" y1="21.6909" x2="47.2378" y2="21.6909" gradientUnits="userSpaceOnUse">
<stop stop-color="#9281CE"/>
<stop offset="1" stop-color="#68DBFF"/>
</linearGradient>
<linearGradient id="paint5_linear_4141_4" x1="22.2033" y1="21.4638" x2="17.5913" y2="21.4638" gradientUnits="userSpaceOnUse">
<stop stop-color="#9281CE"/>
<stop offset="1" stop-color="#68DBFF"/>
</linearGradient>
<linearGradient id="paint6_linear_4141_4" x1="23.173" y1="25.8546" x2="18.561" y2="25.8546" gradientUnits="userSpaceOnUse">
<stop stop-color="#9281CE"/>
<stop offset="1" stop-color="#68DBFF"/>
</linearGradient>
<linearGradient id="paint7_linear_4141_4" x1="25.113" y1="34.6364" x2="20.501" y2="34.6364" gradientUnits="userSpaceOnUse">
<stop stop-color="#9281CE"/>
<stop offset="1" stop-color="#68DBFF"/>
</linearGradient>
<linearGradient id="paint8_linear_4141_4" x1="24.1428" y1="30.2455" x2="19.5308" y2="30.2455" gradientUnits="userSpaceOnUse">
<stop stop-color="#9281CE"/>
<stop offset="1" stop-color="#68DBFF"/>
</linearGradient>
<linearGradient id="paint9_linear_4141_4" x1="31.3082" y1="46.4724" x2="17.042" y2="46.4724" gradientUnits="userSpaceOnUse">
<stop stop-color="#9281CE"/>
<stop offset="1" stop-color="#68DBFF"/>
</linearGradient>
</defs>
</svg>
