<svg width="64" height="64" viewBox="0 0 64 64" fill="none" xmlns="http://www.w3.org/2000/svg">
<path fill-rule="evenodd" clip-rule="evenodd" d="M63.3957 52.6349L48.2377 45.537C48.2232 45.5203 48.2063 45.5057 48.1893 45.4909L48.1892 45.4909C48.1816 45.4843 48.1739 45.4776 48.1665 45.4708C48.1403 45.4466 48.1141 45.4235 48.0858 45.4015C48.0776 45.395 48.07 45.3878 48.0623 45.3805C48.0524 45.3712 48.0426 45.3619 48.0314 45.3542C48.0081 45.3386 47.9833 45.3277 47.9584 45.3169C47.9464 45.3116 47.9344 45.3064 47.9225 45.3006C47.9026 45.2901 47.8869 45.2754 47.867 45.2659L40.3576 42.0369L28.4081 36.8976L31.7078 35.7943L39.724 39.1231H39.7251L61.715 48.2532C61.8428 48.3068 61.9789 48.3331 62.115 48.3331C62.3192 48.3331 62.5224 48.2732 62.6973 48.1566C62.9873 47.9611 63.1622 47.6333 63.1622 47.2823V13.6578C63.1622 13.2323 62.9067 12.8488 62.5161 12.6869L54.1386 9.20786H54.1376L32.1476 0.0777597C32.0701 0.045186 31.9895 0.0241707 31.9078 0.0115615C31.9068 0.0115615 31.906 0.0112998 31.9052 0.0110376L31.9052 0.0110362C31.9044 0.0107735 31.9036 0.0105108 31.9026 0.0105108C31.7455 -0.0126061 31.5863 0.00315542 31.4356 0.0504398C31.4324 0.0514906 31.429 0.0514906 31.4256 0.0514906C31.4222 0.0514906 31.4188 0.0514906 31.4157 0.0525414L0 10.5602L0.66287 12.5535L30.6994 2.50608V33.9156L26.5106 35.3162V26.267C26.5106 25.9339 26.3535 25.6208 26.0876 25.4222C25.8205 25.2247 25.476 25.1637 25.1587 25.2614L1.07337 32.6168C0.632502 32.7513 0.330912 33.16 0.330912 33.6224V44.13V50.4346C0.330912 50.8392 0.56234 51.208 0.925715 51.3824L12.0657 56.7287L7.22769 58.9353C6.85594 59.1034 6.61718 59.4744 6.61404 59.8831C6.6109 60.2919 6.84442 60.6659 7.21303 60.8414L13.5014 63.8308L14.3967 61.931L10.1473 59.9115L14.5308 57.9129L25.01 62.9419C25.0292 62.9512 25.0492 62.9567 25.069 62.9621L25.0691 62.9622C25.0726 62.9631 25.0762 62.9641 25.0797 62.9651C25.0876 62.9674 25.0955 62.9697 25.1032 62.9724L25.1125 62.9757C25.1438 62.9872 25.1745 62.9984 25.2069 63.007C25.2676 63.0228 25.3294 63.0301 25.3912 63.0343C25.4031 63.0348 25.4145 63.037 25.4258 63.0391C25.4384 63.0415 25.4508 63.0438 25.4634 63.0438C25.4692 63.0438 25.4747 63.0426 25.4799 63.0414L25.48 63.0414C25.4832 63.0407 25.4864 63.04 25.4896 63.0396C25.5545 63.0375 25.6174 63.0259 25.6802 63.0123C25.6916 63.0096 25.7032 63.0079 25.7148 63.0062C25.7309 63.0038 25.7471 63.0014 25.7629 62.9965C25.7796 62.9914 25.7959 62.9842 25.8123 62.9771C25.8226 62.9726 25.833 62.968 25.8436 62.9639C25.8488 62.9618 25.854 62.9613 25.8593 62.9608C25.862 62.9605 25.8646 62.9603 25.8673 62.9598C25.8699 62.9593 25.8724 62.9587 25.875 62.9576L47.8659 53.5008C48.2524 53.3368 48.5016 52.9565 48.5016 52.5362V47.98L60.449 53.5754L41.7849 62.0876L42.652 64L63.3863 54.5431C63.7581 54.3739 63.9979 54.002 64 53.5922C64.0021 53.1824 63.7654 52.8083 63.3957 52.6349ZM54.7847 37.8254V27.3178V23.1147V11.7518L61.0678 14.3598V45.7093L54.7847 43.1003V37.8254ZM52.6903 42.2313L42.9682 38.1943L48.4272 36.8262L52.6903 38.5368V42.2313ZM45.36 35.4286V27.0877L47.4544 26.5623V34.9033L45.36 35.4286ZM49.5488 35.0125V26.7682L51.1196 27.3987L52.6903 28.0292V36.2735L49.5488 35.0125ZM52.6903 25.7658L51.1196 25.1354L49.5488 24.5049V22.5652L52.6903 23.8261V25.7658ZM41.1713 6.09864L52.6903 10.8817V21.5628L49.5488 20.3018V16.8101H47.4544V20.1926L41.1713 21.7687V6.09864ZM41.1713 23.9354L47.4544 22.3592V24.3956L41.1713 25.9718V23.9354ZM41.1713 28.1384L43.2656 27.6131V35.954L41.1713 36.4794V28.1384ZM32.7938 2.62061L39.0769 5.22966V23.1147V27.3178V36.5792L32.7938 33.9702V2.62061ZM25.4027 37.8916L37.3113 43.0131L18.6044 51.2322L4.25996 44.3475L5.87054 43.8558L12.1547 41.9371L14.8313 41.1196L16.3435 40.6583H16.3445L22.6276 38.7396L25.4027 37.8916ZM6.61404 41.4327V38.583L10.8028 37.1824V40.1539L6.61404 41.4327ZM17.0859 38.2352V35.4308L21.2747 34.0301V36.9554L19.529 37.4881L17.0859 38.2352ZM2.42529 34.401L24.4162 27.6856V35.9971L23.3691 36.3165V32.5716C23.3691 32.2343 23.2078 31.9159 22.9345 31.7194C22.6591 31.5209 22.3083 31.4683 21.991 31.5744L15.7078 33.676C15.2795 33.8199 14.9916 34.2203 14.9916 34.6732V38.8741L12.8972 39.514V35.7239C12.8972 35.3866 12.7359 35.0693 12.4626 34.8717C12.1882 34.6742 11.8374 34.6206 11.5191 34.7267L5.23594 36.8283C4.80764 36.9722 4.51967 37.3726 4.51967 37.8254V42.0726L2.42529 42.7115V34.401ZM24.4162 60.3255L14.9957 55.804H14.9947L2.42529 49.7726V45.7976L24.4162 56.3504V60.3255ZM25.4875 54.5347L21.0988 52.429L39.9492 44.1479L44.7956 46.2316L25.4875 54.5347ZM46.4072 51.8437L26.5106 60.4001V56.382L46.4072 47.8256V51.8437ZM22.9345 8.60261C22.6591 8.40507 22.3083 8.35043 21.991 8.45761L3.14161 14.7622C2.71331 14.9062 2.42533 15.3065 2.42533 15.7594V28.3686C2.42533 28.7058 2.5866 29.0232 2.85991 29.2207C3.04108 29.3521 3.25575 29.4193 3.47252 29.4193C3.58352 29.4193 3.69557 29.4015 3.80343 29.3657L22.6528 23.0611C23.0811 22.9172 23.3691 22.5168 23.3691 22.064V9.45478C23.3691 9.11749 23.2078 8.80016 22.9345 8.60261ZM21.2747 21.3074L4.51971 26.9111V16.517L21.2747 10.9132V21.3074ZM13.6606 18.7604L17.3917 15.0154L18.8724 16.5012L14.6837 20.7043C14.4041 20.9848 13.9883 21.0846 13.6124 20.9586L10.9567 20.0707L8.24137 21.8874L7.08003 20.139L10.2216 18.0374C10.4907 17.8577 10.8269 17.8136 11.1337 17.9145L13.6606 18.7604Z" fill="url(#paint0_linear_4167_2)"/>
<defs>
<linearGradient id="paint0_linear_4167_2" x1="64" y1="28.0702" x2="-1.81162e-08" y2="28.0702" gradientUnits="userSpaceOnUse">
<stop stop-color="#9281CE"/>
<stop offset="1" stop-color="#68DBFF"/>
</linearGradient>
</defs>
</svg>
