<svg width="64" height="64" viewBox="0 0 64 64" fill="none" xmlns="http://www.w3.org/2000/svg">
<path fill-rule="evenodd" clip-rule="evenodd" d="M61.5983 57.4301L62.133 60.559C62.2795 61.4164 62.0417 62.2894 61.4807 62.954C60.9201 63.6185 60.0993 63.9999 59.2297 63.9999H4.94514C4.07551 63.9999 3.2552 63.6185 2.69417 62.954C2.13362 62.2894 1.89583 61.4164 2.04232 60.559L3.32307 53.06C3.84358 50.0131 5.80354 47.414 8.50324 46.0395V20.7192C8.50324 18.9443 9.9466 17.5009 11.7215 17.5009H13.1819V14.3774C13.1819 13.313 14.0482 12.4468 15.1126 12.4468H16.0755C16.3074 11.8003 16.9051 11.3266 17.6175 11.2759C17.9612 8.76268 19.0481 6.41063 20.7278 4.57665C24.8676 0.05646 30.9522 0.00287456 31.2741 4.03186e-05L31.2786 0H32.8987H32.9055C33.2468 0 39.3176 0.0673827 43.448 4.57763C45.1272 6.4121 46.2146 8.76414 46.5578 11.2763C47.2683 11.3291 47.8635 11.8017 48.095 12.4468H49.0578C50.1223 12.4468 50.9885 13.313 50.9885 14.3774V22.4995C50.9885 23.5639 50.1223 24.4296 49.0578 24.4296H48.095C47.8494 25.1142 47.1941 25.6049 46.4265 25.6049H45.989L45.9558 26.2001C45.8269 28.4995 45.0759 30.7177 43.7839 32.6142C43.0227 33.7328 41.2195 35.5546 39.4895 37.1064V40.3539C39.4895 41.4682 40.303 42.4648 41.0305 42.6108L42.1609 42.851L53.8342 45.3319C53.8537 45.3358 53.8728 45.3402 53.8913 45.3456C57.4904 46.3485 60.2229 49.3769 60.8518 53.06C60.9392 53.5702 60.5959 54.0551 60.0857 54.142C59.5754 54.2289 59.091 53.8861 59.0036 53.3759C58.4978 50.4135 56.3059 47.9765 53.4153 47.1596L42.1648 44.769C39.1736 46.7758 35.6965 47.8349 32.0877 47.8349C28.4788 47.8349 25.0013 46.7758 22.0105 44.769L10.7596 47.1596C10.491 47.2353 10.2278 47.3256 9.97199 47.4286C9.87238 47.4975 9.75861 47.5473 9.63605 47.5731C7.31135 48.64 5.6092 50.8109 5.17122 53.3759L3.89046 60.8744C3.83626 61.1908 3.92073 61.4999 4.12727 61.745C4.33381 61.9901 4.62434 62.1249 4.94514 62.1249H11.5169L12.6902 54.9125C12.7737 54.4013 13.2562 54.0551 13.7664 54.1381C14.2772 54.2211 14.6243 54.7025 14.5408 55.2138L13.4163 62.1249H50.759L49.634 55.2138C49.551 54.7025 49.8977 54.2211 50.4089 54.1381C50.9211 54.0551 51.4016 54.4017 51.4846 54.9125L52.6584 62.1249H59.2297C59.5505 62.1249 59.841 61.9901 60.0476 61.745C60.2546 61.4999 60.3386 61.1908 60.2849 60.8744L59.7502 57.746C59.6633 57.2357 60.0061 56.7514 60.5163 56.6639C61.0266 56.5765 61.5114 56.9198 61.5983 57.4301ZM49.0574 14.3217H48.1985V22.5546H49.0574C49.0881 22.5546 49.113 22.5297 49.113 22.499V14.3774C49.113 14.3467 49.0881 14.3217 49.0574 14.3217ZM32.0877 45.9599C34.7581 45.9599 37.3479 45.3129 39.6785 44.0751C38.3845 43.3207 37.614 41.7157 37.614 40.3539V38.7011C36.846 39.3134 36.2048 39.7616 35.8362 39.9189C34.6453 40.4272 33.3665 40.6811 32.0877 40.6811C30.8089 40.6811 29.5301 40.4267 28.3386 39.9189C27.9705 39.7616 27.3294 39.3139 26.5608 38.7011V40.3539C26.5608 41.7148 25.7923 43.3178 24.4944 44.0741C26.8255 45.3124 29.4163 45.9599 32.0877 45.9599ZM31.2761 1.875C31.2195 1.875 25.7005 1.92334 22.1106 5.84325C20.7459 7.33348 19.8426 9.23191 19.5135 11.2715H44.6614C44.3328 9.23289 43.4294 7.33446 42.0647 5.84374C38.4661 1.91357 32.9837 1.875 32.9021 1.875H32.9016H31.2761ZM18.4617 13.1465H17.847V23.7299H22.2185C22.7366 23.7299 23.156 24.1494 23.156 24.6674C23.156 25.185 22.7366 25.6049 22.2185 25.6049H20.0638L20.0911 26.0937C20.201 28.0537 20.8406 29.9433 21.9407 31.5585C22.5105 32.3954 23.9339 33.8886 25.656 35.455C25.8548 35.6357 26.0467 35.808 26.2317 35.9716C26.2351 35.9744 26.2385 35.9773 26.2419 35.9802C26.2467 35.9844 26.2515 35.9888 26.2561 35.9931C27.7605 37.3217 28.7918 38.0737 29.074 38.1938C30.989 39.0107 33.1853 39.0107 35.1008 38.1938C35.9602 37.8276 40.8806 33.5463 42.2341 31.5585C43.3342 29.9433 43.9734 28.0541 44.0832 26.0947L44.1111 25.6049H35.8923C35.0505 25.6049 34.2249 25.3749 33.5042 24.9394C32.6292 24.4111 31.5418 24.4111 30.6663 24.9394C29.9456 25.3749 29.1194 25.6049 28.2776 25.6049H26.5847C26.0672 25.6049 25.6472 25.185 25.6472 24.6674C25.6472 24.1499 26.0672 23.7299 26.5847 23.7299H28.2776C28.7781 23.7299 29.2688 23.5932 29.697 23.3344C31.1702 22.4448 33.0003 22.4448 34.4734 23.3344C34.9016 23.5932 35.3923 23.7299 35.8928 23.7299H46.3235V13.1465H18.4773H18.4617ZM15.1131 14.3217C15.0823 14.3217 15.0574 14.3467 15.0574 14.3774V22.499C15.0574 22.5297 15.0823 22.5546 15.1131 22.5546H15.972V14.3217H15.1131ZM11.7215 19.3759C10.9808 19.3759 10.3782 19.9785 10.3782 20.7192V45.3236L22.0144 42.851L23.1346 42.6132C23.8723 42.4648 24.6858 41.4682 24.6858 40.3539V37.1064C22.9558 35.5546 21.1526 33.7328 20.3914 32.6142C19.0994 30.7177 18.3484 28.499 18.2195 26.1992L18.1858 25.6049H17.7444C16.9764 25.6049 16.3211 25.1142 16.0755 24.4296H15.1131C14.0486 24.4296 13.1824 23.5634 13.1824 22.499V19.3759H11.7215ZM34.7827 15.7851C34.7744 15.7529 34.7666 15.7206 34.7666 15.7045C34.7666 15.4472 35.145 15.27 35.4263 15.27C35.6035 15.27 35.7402 15.3261 35.7803 15.4794L37.0117 19.8408L38.2349 15.4794C38.2749 15.3261 38.4121 15.27 38.5889 15.27C38.8706 15.27 39.249 15.455 39.249 15.7045C39.249 15.7238 39.2439 15.7427 39.2376 15.7657L39.2324 15.7851L37.6875 20.8466C37.6152 21.0883 37.3174 21.2006 37.0117 21.2006C36.7061 21.2006 36.416 21.0883 36.3359 20.8466L34.7827 15.7851ZM39.8042 15.5922C39.8042 15.4233 39.9409 15.2704 40.1421 15.2704H41.7354C42.7896 15.2704 43.6426 15.6728 43.6426 16.9521C43.6426 17.8774 43.1919 18.3764 42.5884 18.5615L43.6426 20.517C43.6748 20.5571 43.6826 20.6137 43.6826 20.6459C43.6826 20.9116 43.3369 21.1928 43.0308 21.1928C42.8862 21.1928 42.7495 21.1044 42.6689 20.9433L41.5264 18.7221H40.8501V20.8227C40.8501 21.04 40.5928 21.1528 40.3271 21.1528C40.0693 21.1528 39.8037 21.04 39.8037 20.8227V15.5922H39.8042ZM40.8501 16.1874V17.9013H41.7354C42.2583 17.9013 42.5962 17.684 42.5962 17.0483C42.5962 16.4125 42.2583 16.1874 41.7354 16.1874H40.8501Z" fill="url(#paint0_linear_4167_3)"/>
<defs>
<linearGradient id="paint0_linear_4167_3" x1="62.1753" y1="28.0701" x2="2" y2="28.0701" gradientUnits="userSpaceOnUse">
<stop stop-color="#9281CE"/>
<stop offset="1" stop-color="#68DBFF"/>
</linearGradient>
</defs>
</svg>
