<svg width="64" height="64" viewBox="0 0 64 64" fill="none" xmlns="http://www.w3.org/2000/svg">
<path d="M61.0585 35.0705H59.992V35.006C59.992 31.0915 57.4657 27.7579 53.9589 26.544C53.7326 24.0253 51.611 22.0443 49.0344 22.0443H36.9456V5.95165C36.9456 4.88215 36.0756 4.01215 35.0061 4.01215H28.994C27.9245 4.01215 27.0545 4.88215 27.0545 5.95165V18.9738C27.0545 19.4916 27.4743 19.9113 27.992 19.9113C28.5098 19.9113 28.9295 19.4916 28.9295 18.9738V5.95165C28.9295 5.91602 28.9584 5.88715 28.994 5.88715H35.0061C35.0418 5.88715 35.0706 5.91602 35.0706 5.95165V22.0444H14.9657C12.3891 22.0444 10.2675 24.0254 10.0413 26.5441C6.53438 27.758 4.00812 31.0915 4.00812 35.0061V35.0706H2.94163C1.31963 35.0705 0 36.3901 0 38.0121V42.0201C0 43.6422 1.31962 44.9616 2.9415 44.9616H4.008V49.0343C4.008 53.9713 8.02463 57.9879 12.9616 57.9879H51.0382C55.9753 57.9879 59.9919 53.9713 59.9919 49.0343V44.9616H61.0584C62.6804 44.9616 63.9999 43.6422 63.9999 42.0201V38.0121C64 36.3901 62.6804 35.0705 61.0585 35.0705ZM2.9415 43.0866C2.35337 43.0866 1.875 42.6083 1.875 42.0201V38.0121C1.875 37.424 2.3535 36.9456 2.9415 36.9456H4.008V43.0868L2.9415 43.0866ZM58.117 49.0343C58.117 52.9374 54.9415 56.1129 51.0384 56.1129H12.9616C9.0585 56.1129 5.883 52.9374 5.883 49.0343V35.006C5.883 31.1029 9.0585 27.9274 12.9616 27.9274H44.0244C44.5421 27.9274 44.9619 27.5076 44.9619 26.9899C44.9619 26.4721 44.5421 26.0524 44.0244 26.0524H12.9616C12.6459 26.0524 12.334 26.0693 12.0267 26.1014C12.4087 24.8403 13.5815 23.9193 14.9657 23.9193H49.0344C50.4186 23.9193 51.5914 24.8401 51.9734 26.1014C51.666 26.0694 51.3541 26.0524 51.0385 26.0524H48.0327C47.515 26.0524 47.0952 26.4721 47.0952 26.9899C47.0952 27.5076 47.515 27.9274 48.0327 27.9274H51.0385C54.9416 27.9274 58.1171 31.1029 58.1171 35.006L58.117 49.0343ZM62.125 42.0201C62.125 42.6083 61.6465 43.0866 61.0585 43.0866H59.992V36.9455H61.0585C61.6466 36.9455 62.125 37.424 62.125 38.012V42.0201Z" fill="url(#paint0_linear_4167_4)"/>
<path d="M11.9596 48.0967C10.3376 48.0967 9.01807 49.4164 9.01807 51.0382C9.01807 52.6601 10.3377 53.9797 11.9596 53.9797C13.5814 53.9797 14.9011 52.6601 14.9011 51.0382C14.9011 49.4164 13.5816 48.0967 11.9596 48.0967ZM11.9596 52.1049C11.3714 52.1049 10.8931 51.6264 10.8931 51.0384C10.8931 50.4502 11.3716 49.9719 11.9596 49.9719C12.5476 49.9719 13.0261 50.4502 13.0261 51.0384C13.0261 51.6264 12.5477 52.1049 11.9596 52.1049Z" fill="url(#paint1_linear_4167_4)"/>
<path d="M11.9596 30.0605C10.3376 30.0605 9.01807 31.3801 9.01807 33.002C9.01807 34.6239 10.3377 35.9435 11.9596 35.9435C13.5814 35.9435 14.9011 34.6239 14.9011 33.002C14.9011 31.3801 13.5816 30.0605 11.9596 30.0605ZM11.9596 34.0685C11.3714 34.0685 10.8931 33.59 10.8931 33.002C10.8931 32.414 11.3716 31.9355 11.9596 31.9355C12.5476 31.9355 13.0261 32.414 13.0261 33.002C13.0261 33.59 12.5477 34.0685 11.9596 34.0685Z" fill="url(#paint2_linear_4167_4)"/>
<path d="M52.0404 48.0967C50.4184 48.0967 49.0989 49.4164 49.0989 51.0382C49.0989 52.6601 50.4185 53.9797 52.0404 53.9797C53.6623 53.9797 54.9819 52.6601 54.9819 51.0382C54.9819 49.4164 53.6623 48.0967 52.0404 48.0967ZM52.0404 52.1049C51.4523 52.1049 50.9739 51.6264 50.9739 51.0384C50.9739 50.4502 51.4524 49.9719 52.0404 49.9719C52.6284 49.9719 53.1069 50.4502 53.1069 51.0384C53.1069 51.6264 52.6284 52.1049 52.0404 52.1049Z" fill="url(#paint3_linear_4167_4)"/>
<path d="M52.0404 30.0605C50.4184 30.0605 49.0989 31.3801 49.0989 33.002C49.0989 34.6239 50.4185 35.9435 52.0404 35.9435C53.6623 35.9435 54.9819 34.6239 54.9819 33.002C54.9819 31.3801 53.6623 30.0605 52.0404 30.0605ZM52.0404 34.0685C51.4523 34.0685 50.9739 33.59 50.9739 33.002C50.9739 32.414 51.4524 31.9355 52.0404 31.9355C52.6284 31.9355 53.1069 32.414 53.1069 33.002C53.1069 33.59 52.6284 34.0685 52.0404 34.0685Z" fill="url(#paint4_linear_4167_4)"/>
<path d="M30.3251 37.1342C29.8405 36.9522 29.2999 37.1981 29.1181 37.6829L26.6388 44.2947C26.4603 44.7709 25.9985 45.0907 25.4838 45.0907C24.9753 45.0907 24.5135 44.7709 24.335 44.2947L21.8556 37.683C21.6739 37.1981 21.1333 36.9526 20.6486 37.1344C20.1639 37.3161 19.9181 37.8565 20.1 38.3414L22.5794 44.9531C23.0308 46.157 24.198 46.9659 25.49 46.9659C26.7758 46.9659 27.943 46.157 28.3944 44.9531L30.8738 38.3414C31.0556 37.8565 30.8099 37.316 30.3251 37.1342Z" fill="url(#paint5_linear_4167_4)"/>
<path d="M42.9575 40.0161C42.9575 38.3941 41.6379 37.0746 40.016 37.0746H34.0039C33.4862 37.0746 33.0664 37.4944 33.0664 38.0121V46.0283C33.0664 46.5461 33.4862 46.9658 34.0039 46.9658C34.5217 46.9658 34.9414 46.5461 34.9414 46.0283V38.9496H40.016C40.6042 38.9496 41.0825 39.4281 41.0825 40.0161C41.0825 40.6043 40.604 41.0826 40.016 41.0826H38.03C37.4808 41.0826 36.9895 41.4309 36.8078 41.9493C36.626 42.4675 36.792 43.0463 37.2209 43.3894L41.4344 46.7603C41.6073 46.8985 41.814 46.9659 42.0194 46.9658C42.2944 46.9658 42.5669 46.8454 42.752 46.6139C43.0754 46.2096 43.0099 45.6196 42.6057 45.2961L39.6825 42.9576H40.0159C41.6379 42.9576 42.9575 41.638 42.9575 40.0161Z" fill="url(#paint6_linear_4167_4)"/>
<defs>
<linearGradient id="paint0_linear_4167_4" x1="63.9999" y1="27.6857" x2="-1.81161e-08" y2="27.6857" gradientUnits="userSpaceOnUse">
<stop stop-color="#9281CE"/>
<stop offset="1" stop-color="#68DBFF"/>
</linearGradient>
<linearGradient id="paint1_linear_4167_4" x1="14.9011" y1="50.677" x2="9.01807" y2="50.677" gradientUnits="userSpaceOnUse">
<stop stop-color="#9281CE"/>
<stop offset="1" stop-color="#68DBFF"/>
</linearGradient>
<linearGradient id="paint2_linear_4167_4" x1="14.9011" y1="32.6407" x2="9.01807" y2="32.6407" gradientUnits="userSpaceOnUse">
<stop stop-color="#9281CE"/>
<stop offset="1" stop-color="#68DBFF"/>
</linearGradient>
<linearGradient id="paint3_linear_4167_4" x1="54.9819" y1="50.677" x2="49.0989" y2="50.677" gradientUnits="userSpaceOnUse">
<stop stop-color="#9281CE"/>
<stop offset="1" stop-color="#68DBFF"/>
</linearGradient>
<linearGradient id="paint4_linear_4167_4" x1="54.9819" y1="32.6407" x2="49.0989" y2="32.6407" gradientUnits="userSpaceOnUse">
<stop stop-color="#9281CE"/>
<stop offset="1" stop-color="#68DBFF"/>
</linearGradient>
<linearGradient id="paint5_linear_4167_4" x1="30.9337" y1="41.4127" x2="20.04" y2="41.4127" gradientUnits="userSpaceOnUse">
<stop stop-color="#9281CE"/>
<stop offset="1" stop-color="#68DBFF"/>
</linearGradient>
<linearGradient id="paint6_linear_4167_4" x1="42.9575" y1="41.4129" x2="33.0664" y2="41.4129" gradientUnits="userSpaceOnUse">
<stop stop-color="#9281CE"/>
<stop offset="1" stop-color="#68DBFF"/>
</linearGradient>
</defs>
</svg>
