<svg width="64" height="64" viewBox="0 0 64 64" fill="none" xmlns="http://www.w3.org/2000/svg">
<path fill-rule="evenodd" clip-rule="evenodd" d="M23.7013 6.31036C12.9611 7.68133 4.84009 11.1819 2.14236 15.6028C1.00146 17.4727 1 17.4966 1 34.886C1 50.6517 1.08202 52.45 1.87044 53.9205C2.75309 55.5676 6.83923 58.9776 7.95669 59C8.41901 59.0094 8.56693 57.1569 8.56693 51.3596V43.7068L11.1299 42.6806C23.1613 37.8637 40.6956 37.8682 52.8701 42.6915L55.4331 43.7068V51.3596C55.4331 57.1569 55 59 56.0433 59C57.1608 58.9776 61.2469 55.5676 62.1296 53.9205C62.918 52.45 63 50.6502 63 34.8492C63 34.8492 63 24.0903 63 17.5C62.5493 16.6507 61.7039 15.4068 61.7039 15.4068C59 12 53.2518 8.72399 44.5909 7.02868C39.626 6.05666 28.6447 5.67909 23.7013 6.31036ZM40.9378 8.29121C53.9158 10.1999 61.9392 15.0406 60.9413 20.3599C60.7802 21.22 59.6808 22.6447 58.063 24.0903L55.4453 26.4293L55.4394 34.1149C55.436 38.3423 55.2495 41.5882 55.025 41.328C54.8009 41.0678 53.2328 35.5949 51.5412 29.1653C49.8497 22.7357 48.3304 17.3249 48.1659 17.1409C48.0009 16.9568 46.548 19.0212 44.937 21.7284C43.326 24.4355 41.8868 26.6566 41.7389 26.6641C41.591 26.6716 40.9744 25.6384 40.369 24.3684C39.7632 23.0979 39.1041 22.2582 38.9049 22.5029C38.7053 22.7472 36.5075 26.1099 34.0206 29.9751L29.4985 37.0031L26.4776 37.326C24.8163 37.5036 22.5228 37.7802 21.3819 37.9408C18.8931 38.2905 18.5909 37.4021 20.5276 35.4287C21.4922 34.4457 21.748 33.6817 21.748 31.7859C21.748 28.6524 20.7419 27.1755 18.607 27.1755C17.7151 27.1755 16.6977 27.5292 16.3452 27.9615C15.9508 28.4465 15.2385 28.6569 14.4887 28.5106C10.591 27.7515 8.47906 33.6036 11.4765 36.8549C13.0397 38.5502 12.7649 39.9714 10.7042 40.8489C9.73175 41.2628 8.85301 41.6016 8.75147 41.6016C8.64992 41.6016 8.564 38.1881 8.56058 34.0154L8.55473 26.4293L5.93706 24.0903C4.3192 22.6447 3.2198 21.22 3.05869 20.3599C2.08915 15.1914 9.36854 10.574 21.748 8.50561C26.3888 7.73008 36.3659 7.61865 40.9378 8.29121ZM41.7638 11.2207C41.7638 11.9326 42.0772 12.2519 42.7758 12.2519C43.4744 12.2519 43.7375 11.9838 43.6248 11.3869C43.3797 10.0905 41.7638 9.94573 41.7638 11.2207ZM45.496 11.9947C45.2885 12.5459 45.9227 12.9394 48.0067 13.5503C49.5406 14 51.5979 14.781 52.5791 15.2854C54.1604 16.0987 54.3962 16.1151 54.6539 15.4306C54.814 15.0053 54.9449 14.5671 54.9449 14.4566C54.9449 13.9796 47.6518 11.2749 46.3318 11.2625C46.0247 11.2595 45.6488 11.5888 45.496 11.9947ZM12.4949 12.7086C11.2988 13.2026 10.2439 13.8408 10.1501 14.1273C9.86063 15.0133 11.003 15.3585 12.3797 14.8004C13.1022 14.5079 14.2929 14.0457 15.0262 13.7736C15.9332 13.4369 16.2676 13.0354 16.0723 12.5166C15.7126 11.561 15.2063 11.5883 12.4949 12.7086ZM26.1417 12.5006C26.1417 12.915 26.5757 13.2468 27.1181 13.2468C27.6605 13.2468 28.0945 12.915 28.0945 12.5006C28.0945 12.0863 27.6605 11.7545 27.1181 11.7545C26.5757 11.7545 26.1417 12.0863 26.1417 12.5006ZM21.3135 13.9268C20.8918 14.4452 20.9406 14.7601 21.5186 15.2491C22.4515 16.038 23.4928 15.2063 23.0486 14.0263C22.6868 13.0662 22.0449 13.0294 21.3135 13.9268ZM31.0822 13.9209C30.657 14.4432 30.6843 14.7432 31.1969 15.1769C31.7095 15.6102 32.0039 15.5824 32.4296 15.06C32.8548 14.5377 32.8275 14.2378 32.3149 13.804C31.8023 13.3707 31.5079 13.3985 31.0822 13.9209ZM6.89244 15.6779C6.44868 16.4091 8.03334 17.4717 8.6426 16.8509C8.93014 16.5579 9.01753 16.0748 8.83739 15.7774C8.44195 15.1257 7.26395 15.065 6.89244 15.6779ZM25.3191 15.7266C23.1179 16.6529 22.4574 20.4365 24.189 22.201C25.4099 23.4451 28.1052 23.5083 29.5034 22.3253C30.0692 21.8468 30.6633 20.7638 30.823 19.9191C31.3478 17.1478 28.0012 14.5989 25.3191 15.7266ZM28.485 17.8234C29.2959 18.6496 29.2173 19.9908 28.3039 20.922C27.2987 21.9458 26.8306 21.908 25.6535 20.7086C24.4765 19.5092 24.4394 19.0322 25.4441 18.0079C26.358 17.0772 27.6742 16.9971 28.485 17.8234ZM4.95335 18.09C4.79274 18.2532 4.66142 18.8213 4.66142 19.3525C4.66142 20.0281 4.89282 20.2271 5.43373 20.0157C5.85846 19.8495 6.29783 19.7137 6.41011 19.7137C6.52239 19.7137 6.61417 19.4018 6.61417 19.0207C6.61417 18.2706 5.42836 17.6055 4.95335 18.09ZM19.3071 19.1799C19.3071 19.8918 19.6205 20.2112 20.3191 20.2112C21.0177 20.2112 21.2808 19.943 21.1681 19.3461C20.923 18.0497 19.3071 17.905 19.3071 19.1799ZM32.9764 19.2162C32.9764 19.7689 33.302 20.2112 33.7087 20.2112C34.1153 20.2112 34.4409 19.7689 34.4409 19.2162C34.4409 18.6636 34.1153 18.2213 33.7087 18.2213C33.302 18.2213 32.9764 18.6636 32.9764 19.2162ZM6.64981 21.411C6.15869 22.0139 6.39791 22.3701 8.03187 23.4719C9.1181 24.2047 10.3425 24.6733 10.7516 24.5131C11.808 24.1002 11.6743 23.4481 10.3976 22.786C9.79326 22.4726 8.83641 21.8711 8.27109 21.4493C7.37038 20.7773 7.16973 20.7728 6.64981 21.411ZM50.0327 30.6432C51.3831 35.6759 52.4146 39.869 52.3248 39.9605C52.235 40.052 50.7557 39.7555 49.0373 39.3024C47.3194 38.8487 44.233 38.2294 42.1792 37.9254C40.1249 37.622 38.3987 37.1494 38.3426 36.8758C38.2454 36.4037 47.2315 21.1399 47.4658 21.3787C47.5273 21.4413 48.6824 25.61 50.0327 30.6432ZM21.4776 23.7366C20.9747 24.5663 22.1059 25.5175 22.7796 24.831C23.3429 24.2569 22.9905 23.1959 22.2362 23.1959C21.9994 23.1959 21.6582 23.4391 21.4776 23.7366ZM30.7507 23.7411C30.5686 24.041 30.7395 24.6116 31.13 25.0096C31.751 25.6423 31.916 25.6393 32.4501 24.9837C32.786 24.5713 32.9188 24.0007 32.7455 23.7152C32.3329 23.0347 31.1696 23.0501 30.7507 23.7411ZM6.61417 41.7299V56.2013L5.34732 54.995C2.77261 52.5445 2.70866 52.1217 2.70866 37.6051V24.1072L4.66142 25.6831L6.61417 27.259V41.7299ZM60.7763 52.1142C60.4834 52.834 59.6007 54.0513 58.8148 54.8189L57.3858 56.2137V41.7429V27.272L59.2165 25.7752L61.0472 24.2783L61.1776 37.5414C61.2635 46.2781 61.1268 51.2512 60.7763 52.1142ZM26.1417 26.1443C26.1417 26.8561 26.4552 27.1755 27.1537 27.1755C27.8523 27.1755 28.1155 26.9074 28.0027 26.3104C27.7576 25.014 26.1417 24.8693 26.1417 26.1443ZM40.2821 28.6052C40.2914 28.9812 39.2555 31.0462 37.9803 33.1936C35.7376 36.9708 35.5999 37.0991 33.7902 37.1116C32.7606 37.1185 31.9917 36.9434 32.0815 36.7226C32.1709 36.5017 33.7633 33.907 35.6204 30.9566C38.8805 25.7781 39.0187 25.6334 39.6309 26.7571C39.9795 27.3978 40.2724 28.2291 40.2821 28.6052ZM19.7953 31.6525C19.7953 34.2716 18.9102 35.1566 17.6126 33.8344C16.0582 32.2505 17.2586 28.2798 19.0772 28.9907C19.5707 29.1842 19.7953 30.0159 19.7953 31.6525ZM14.3349 30.59C14.7494 30.8581 14.9222 31.7789 14.8231 33.1897C14.7054 34.8616 14.4535 35.4168 13.7515 35.5526C13.2467 35.6501 12.6458 35.4282 12.4163 35.0591C11.8017 34.0707 11.8954 31.4446 12.5701 30.7571C13.2579 30.0562 13.4762 30.0353 14.3349 30.59ZM17.3543 37.3494C17.3543 38.4746 16.5434 39.1143 15.1174 39.1143C14.0942 39.1143 14.2758 38.1224 15.5236 36.8947C16.8188 35.6207 17.3543 35.7535 17.3543 37.3494ZM30.5354 41.6379C30.5354 42.3498 30.7986 42.6179 31.3844 42.503C32.6566 42.2532 32.7987 40.6067 31.5475 40.6067C30.8489 40.6067 30.5354 40.926 30.5354 41.6379ZM22.4852 41.5479C21.1676 41.7523 20.4846 42.1319 20.3743 42.7209C20.1971 43.6715 21.0245 43.8133 23.6398 43.2805C24.6977 43.0651 25.1654 42.6835 25.1654 42.0369C25.1654 41.524 25.0008 41.136 24.7992 41.1748C24.5976 41.2136 23.5563 41.3812 22.4852 41.5479ZM36.8819 41.9662C36.8819 42.8034 37.3178 43.0069 39.689 43.28C41.2326 43.4576 43.657 43.8615 45.0752 44.1774C47.0675 44.6211 47.789 44.6152 48.2445 44.151C48.7053 43.6814 48.6868 43.4571 48.1576 43.1238C47.4077 42.6517 43.3855 41.812 39.4449 41.3056C37.103 41.0041 36.8819 41.0614 36.8819 41.9662ZM15.8898 43.5914C15.8898 44.5898 16.6343 44.8365 18.0158 44.2963C19.1191 43.865 18.4044 42.5965 17.058 42.5965C16.2154 42.5965 15.8898 42.8736 15.8898 43.5914ZM12.6218 43.9137C11.7333 44.2789 12.448 45.5812 13.5367 45.5812C14.1704 45.5812 14.4433 45.2991 14.3388 44.7519C14.1669 43.8481 13.5338 43.5392 12.6218 43.9137ZM50.2173 44.3963C50.0542 44.8295 50.2275 45.3822 50.602 45.624C51.6442 46.296 52.0158 46.1682 52.0158 45.137C52.0158 43.9237 50.6132 43.3461 50.2173 44.3963Z" fill="url(#paint0_linear_138_4565)"/>
<defs>
<linearGradient id="paint0_linear_138_4565" x1="63" y1="29.2456" x2="1" y2="29.2456" gradientUnits="userSpaceOnUse">
<stop stop-color="#9281CE"/>
<stop offset="1" stop-color="#68DBFF"/>
</linearGradient>
</defs>
</svg>
