<svg width="64" height="64" viewBox="0 0 64 64" fill="none" xmlns="http://www.w3.org/2000/svg">
<path fill-rule="evenodd" clip-rule="evenodd" d="M49.999 3.5H57C60.859 3.5 64 6.641 64 10.5V38.5C64 42.359 60.859 45.5 57 45.5C56.447 45.5 56 45.053 56 44.5V33.5H50.079C50.0679 33.5009 50.0568 33.5034 50.0457 33.5058C50.0318 33.5089 50.0179 33.512 50.004 33.512C49.9989 33.512 49.9941 33.5111 49.9894 33.5098C49.9774 33.5066 49.9662 33.5007 49.954 33.5H44V38.504V38.505C44 39.585 43.843 40.628 43.573 41.625C43.5717 41.6441 43.566 41.6624 43.5602 41.6809C43.5569 41.6915 43.5535 41.7021 43.551 41.713C42.701 44.763 40.681 47.322 38 48.879V51.504L40.999 51.502H41C44.859 51.502 48 54.643 48 58.502V59.5C48 60.053 47.553 60.5 47 60.5C46.447 60.5 46 60.053 46 59.5V58.502C46 55.745 43.757 53.502 41 53.502L37.001 53.504H37H27H26.999L23 53.502C20.243 53.502 18 55.745 18 58.502V59.5C18 60.053 17.553 60.5 17 60.5C16.447 60.5 16 60.053 16 59.5V58.502C16 54.643 19.141 51.502 23 51.502H23.001L26 51.504V48.879C23.319 47.322 21.298 44.763 20.449 41.713C20.4464 41.7 20.4427 41.6873 20.4389 41.6747C20.4341 41.6583 20.4293 41.642 20.427 41.625C20.157 40.628 20 39.586 20 38.505V38.504V33.5H14.001H8V44.5C8 45.053 7.553 45.5 7 45.5C3.141 45.5 0 42.359 0 38.5V10.5C0 6.641 3.141 3.5 7 3.5H14.001H49.999ZM25.583 46.161C27.321 47.62 29.559 48.502 32 48.502C34.441 48.502 36.679 47.62 38.417 46.161C36.748 46.931 34.635 47.502 32 47.502C29.365 47.502 27.252 46.931 25.583 46.161ZM42 38.502V32.504C42 26.99 37.514 22.504 32 22.504C26.486 22.504 22 26.99 22 32.504V38.502C22 39.407 22.132 40.279 22.358 41.114C22.874 41.859 25.715 45.502 32 45.502C38.268 45.502 41.142 41.828 41.643 41.113C41.868 40.279 42 39.406 42 38.502ZM39.003 19.199L37.175 21.693C40.918 23.493 43.588 27.168 43.949 31.5H48.021L39.003 19.199ZM2 15.39V38.5C2 40.914 3.721 42.935 6 43.399V17.42C4.443 17.196 3.051 16.464 2 15.39ZM7 15.5C7.553 15.5 8 15.947 8 16.5V31.5H13.001V5.5H7C4.243 5.5 2 7.743 2 10.5C2 13.257 4.243 15.5 7 15.5ZM35.235 20.959L38.195 16.919C38.245 16.866 38.523 16.577 38.976 16.566C39.461 16.555 39.765 16.869 39.811 16.919L48.999 29.451V5.5H15.002V31.5H20.052C20.564 25.352 25.723 20.504 32.001 20.504C33.123 20.504 34.204 20.67 35.235 20.959ZM28 49.802V51.504H36V49.802C34.747 50.247 33.404 50.502 32 50.502C30.596 50.502 29.253 50.247 28 49.802ZM58 43.398C60.279 42.935 62 40.914 62 38.5V15.39C60.949 16.464 59.557 17.195 58 17.42V43.398ZM56 16.5C56 15.947 56.447 15.5 57 15.5C59.757 15.5 62 13.257 62 10.5C62 7.743 59.757 5.5 57 5.5H50.999V31.5H56V16.5ZM25.0031 12.504C25.0031 14.158 23.6571 15.504 22.0031 15.504C20.3491 15.504 19.0031 14.158 19.0031 12.504C19.0031 10.85 20.3491 9.50403 22.0031 9.50403C23.6571 9.50403 25.0031 10.85 25.0031 12.504ZM23.0031 12.504C23.0031 11.952 22.5551 11.504 22.0031 11.504C21.4511 11.504 21.0031 11.952 21.0031 12.504C21.0031 13.056 21.4511 13.504 22.0031 13.504C22.5551 13.504 23.0031 13.056 23.0031 12.504Z" fill="url(#paint0_linear_4167_6)"/>
<defs>
<linearGradient id="paint0_linear_4167_6" x1="64" y1="28.5" x2="-1.81162e-08" y2="28.5" gradientUnits="userSpaceOnUse">
<stop stop-color="#9281CE"/>
<stop offset="1" stop-color="#68DBFF"/>
</linearGradient>
</defs>
</svg>
